<?xml version="1.0" encoding="utf-8"?>
<!-- Generator: Adobe Illustrator 23.0.3, SVG Export Plug-In . SVG Version: 6.00 Build 0)  -->
<svg version="1.1" xmlns="http://www.w3.org/2000/svg" xmlns:xlink="http://www.w3.org/1999/xlink" x="0px" y="0px"
	 viewBox="0 0 750 500" style="enable-background:new 0 0 750 500;" xml:space="preserve">
<style type="text/css">
	.st0{fill:#F5F5F5;}
	.st1{fill:#E0E0E0;}
	.st2{fill:#EBEBEB;}
	.st3{fill:#FAFAFA;}
	.st4{fill:#FFFFFF;}
	.st5{display:none;}
	.st6{display:inline;}
	.st7{fill:#263238;}
	.st8{fill:#455A64;}
	.st9{fill:#FFBF9D;}
	.st10{fill:#FF9A6C;}
	.st11{fill:#50B3CF;}
	.st12{opacity:0.3;}
</style>
<g id="Background_Complete">
	<g>
		<g>
			<g>
				<g>
					<g>
						<g>
							<g>
								<g>
									<g>
										<path class="st0" d="M367.06,387.57l-11.03,4.73l0.74-65.25c0.35-7.81-3.25-11.14-5.2-13.36
											c-17.7-20.13-44.12-5.53-44.35,14.89l-0.66,58.31l-10.71-0.12l1.07-61.02c0.08-6.87,5.42-18.8,10.81-23.07
											c29.8-23.6,60.29,0.79,60,26.58L367.06,387.57z"/>
									</g>
								</g>
								<g>
									<g>
										<g>
											<path class="st1" d="M367.06,387.57c0,0-0.01-0.4-0.01-1.17c0-0.77,0.01-1.9,0.02-3.39c0.02-2.98,0.06-7.35,0.1-12.97
												c0.05-5.62,0.11-12.5,0.18-20.48c0.04-3.99,0.08-8.25,0.12-12.78c-0.04-4.51,0.41-9.33-0.52-14.27
												c-0.86-4.93-2.93-9.89-6.14-14.31c-0.41-0.55-0.8-1.11-1.23-1.65c-0.46-0.51-0.92-1.03-1.38-1.55
												c-0.88-1.08-1.99-1.96-3.01-2.95c-0.52-0.49-1.12-0.88-1.67-1.33c-0.58-0.42-1.11-0.91-1.74-1.27
												c-1.23-0.75-2.43-1.59-3.78-2.19c-2.59-1.4-5.48-2.27-8.42-3.02c-0.75-0.12-1.5-0.25-2.26-0.37l-1.13-0.19
												c-0.38-0.04-0.77-0.05-1.15-0.08c-0.77-0.05-1.54-0.09-2.32-0.14c-0.78-0.01-1.56,0.05-2.34,0.07
												c-6.26,0.22-12.6,2.36-18.08,6.02c-2.74,1.85-5.2,4.16-7.4,6.72c-2.16,2.61-3.92,5.57-5.33,8.73
												c-1.35,3.19-2.19,6.61-2.62,10.1c-0.3,3.51-0.22,7.11-0.29,10.73c-0.16,14.47-0.33,29.45-0.5,44.8
												c-0.02,2.05-0.05,4.09-0.07,6.12l-0.25-0.25c3.64,0.04,7.23,0.08,10.71,0.12l-0.25,0.25c0.13-11.6,0.26-22.94,0.39-33.97
												c0.06-5.51,0.13-10.95,0.19-16.29c0.03-2.67,0.06-5.32,0.09-7.95c0.07-2.65,0.49-5.26,1.29-7.74
												c1.68-4.93,4.82-9.24,8.86-12.19c0.51-0.35,0.99-0.77,1.53-1.07l1.6-0.95c1.11-0.53,2.2-1.12,3.37-1.48
												c1.14-0.46,2.33-0.71,3.5-1c0.59-0.12,1.19-0.18,1.79-0.27l0.89-0.13l0.9-0.04c2.39-0.19,4.75,0.13,7.02,0.59
												c2.27,0.53,4.42,1.39,6.42,2.45c3.94,2.23,7.24,5.37,9.4,9.07c1.16,1.8,1.91,3.79,2.57,5.74c0.53,2,0.94,4,0.99,6.01
												c0.02,0.5,0.04,1,0.06,1.49c-0.01,0.49-0.01,0.98-0.02,1.47c-0.01,0.97-0.02,1.94-0.04,2.9
												c-0.02,1.91-0.05,3.79-0.07,5.63c-0.09,7.36-0.18,14.12-0.26,20.22c-0.17,12.19-0.3,21.73-0.39,28.07l-0.07-0.07
												c3.64,0.06,6.31,0.1,8.08,0.13c0.88,0.02,1.53,0.03,1.98,0.04C366.84,387.56,367.06,387.57,367.06,387.57
												s-0.2,0.01-0.63,0.01c-0.44,0-1.09,0-1.96-0.01c-1.78-0.01-4.46-0.03-8.12-0.05l-0.07,0l0-0.07
												c0.06-6.34,0.14-15.88,0.25-28.07c0.06-6.1,0.13-12.86,0.2-20.22c0.02-1.84,0.04-3.72,0.06-5.63
												c0.01-0.96,0.02-1.92,0.03-2.9c0.01-0.49,0.01-0.98,0.02-1.47c-0.02-0.49-0.04-0.98-0.06-1.47
												c-0.05-1.97-0.46-3.95-0.98-5.92c-0.66-1.92-1.4-3.88-2.55-5.65c-2.13-3.63-5.39-6.72-9.27-8.91
												c-1.97-1.04-4.08-1.88-6.32-2.4c-2.24-0.45-4.56-0.76-6.91-0.57l-0.88,0.04l-0.88,0.12c-0.58,0.09-1.17,0.15-1.75,0.27
												c-1.15,0.29-2.32,0.53-3.44,0.98c-1.15,0.36-2.22,0.94-3.31,1.45l-1.57,0.93c-0.54,0.3-1,0.7-1.5,1.05
												c-3.96,2.91-7.04,7.14-8.69,11.98c-0.78,2.43-1.2,5-1.26,7.6c-0.03,2.63-0.06,5.28-0.09,7.95
												c-0.06,5.34-0.12,10.78-0.18,16.29c-0.12,11.03-0.25,22.37-0.38,33.97l0,0.25l-0.25,0c-3.48-0.04-7.07-0.08-10.71-0.12
												l-0.25,0l0-0.25c0.02-2.03,0.05-4.07,0.07-6.12c0.18-15.35,0.35-30.33,0.51-44.8c0.07-3.62-0.01-7.19,0.3-10.77
												c0.44-3.55,1.29-7.01,2.66-10.24c1.43-3.2,3.22-6.2,5.41-8.84c2.24-2.59,4.73-4.93,7.51-6.8
												c5.56-3.71,11.98-5.87,18.32-6.08c0.79-0.02,1.58-0.08,2.37-0.07l2.69,0.17c0.49,0.06,0.99,0.11,1.48,0.17l2.25,0.37
												c0.35,0.07,0.69,0.15,1.04,0.22c2.8,0.73,5.53,1.59,8,2.93c1.36,0.61,2.57,1.46,3.82,2.22c0.64,0.36,1.17,0.86,1.76,1.29
												c0.56,0.45,1.17,0.85,1.69,1.34c1.03,1,2.15,1.89,3.04,2.99c0.47,0.53,0.93,1.05,1.39,1.57
												c0.43,0.55,0.82,1.12,1.24,1.67c3.23,4.47,5.32,9.49,6.17,14.47c0.92,5,0.46,9.84,0.48,14.36
												c-0.06,4.54-0.12,8.82-0.17,12.82c-0.11,7.99-0.21,14.88-0.29,20.51c-0.08,5.61-0.15,9.97-0.19,12.94
												c-0.03,1.47-0.04,2.59-0.06,3.35C367.08,387.2,367.06,387.57,367.06,387.57z"/>
										</g>
									</g>
								</g>
							</g>
						</g>
					</g>
					<g>
						<g>
							<g>
								<g>
									<path class="st1" d="M380.01,431.85l-97.3-1.1l0.93-82.07l96.95,1.1c2.07,0.02,3.73,1.72,3.7,3.79l-0.85,74.92
										C383.43,430.37,381.89,431.87,380.01,431.85z"/>
								</g>
							</g>
						</g>
					</g>
					<g>
						<g>
							<g>
								<g>
									<path class="st2" d="M366.57,431.7l-84.25-0.96c-2.32-0.03-4.18-1.93-4.15-4.25l0.84-73.8c0.03-2.24,1.87-4.04,4.11-4.02
										l85.29,0.97c2.24,0.03,4.04,1.87,4.02,4.11l-0.83,73.03C371.56,429.53,369.31,431.73,366.57,431.7z"/>
								</g>
							</g>
						</g>
					</g>
					<g>
						<path class="st1" d="M338.36,383.11c0.07-6.44-5.19-11.71-11.68-11.59c-6.06,0.11-11.12,5.17-11.24,11.23
							c-0.1,5.28,3.39,9.73,8.21,11.17l-7.66,15.72l19.75,0.59l-5.84-16.24C334.72,392.67,338.3,388.34,338.36,383.11z"/>
					</g>
				</g>
			</g>
		</g>
		<g>
			<g>
				<g>
					<path class="st3" d="M371.69,424.05c-0.14,0-0.03-14.29,0.25-31.92c0.28-17.63,0.61-31.92,0.75-31.91
						c0.14,0,0.03,14.29-0.25,31.92C372.16,409.76,371.82,424.05,371.69,424.05z"/>
				</g>
			</g>
		</g>
		<g>
			<g>
				<g>
					<path class="st4" d="M350.85,351.93c0,0.14-12.58,0.28-28.09,0.31c-15.52,0.03-28.09-0.06-28.09-0.2
						c0-0.14,12.57-0.28,28.09-0.31C338.27,351.7,350.85,351.79,350.85,351.93z"/>
				</g>
			</g>
		</g>
		<g>
			<g>
				<g>
					<path class="st4" d="M315,389.01c-0.03,0.01-0.21-0.23-0.47-0.72c-0.26-0.49-0.58-1.22-0.86-2.18
						c-0.56-1.89-0.8-4.75,0.18-7.66c0.99-2.91,2.93-5.03,4.52-6.19c0.8-0.59,1.5-0.98,2-1.2c0.5-0.23,0.8-0.31,0.81-0.29
						c0.04,0.08-1.09,0.55-2.59,1.77c-1.49,1.2-3.31,3.28-4.26,6.07c-0.94,2.79-0.77,5.55-0.32,7.41
						C314.47,387.91,315.09,388.97,315,389.01z"/>
				</g>
			</g>
		</g>
		<g>
			<g>
				<g>
					<path class="st4" d="M319.47,394.49c-0.07,0.12-0.75-0.17-1.5-0.64c-0.76-0.47-1.31-0.95-1.24-1.07
						c0.07-0.12,0.75,0.17,1.5,0.64C318.99,393.9,319.54,394.38,319.47,394.49z"/>
				</g>
			</g>
		</g>
		<g>
			<g>
				<g>
					<path class="st4" d="M329.02,296.13c0,0.04-0.69,0.09-1.93,0.25c-1.24,0.15-3.03,0.47-5.16,1.11
						c-4.25,1.23-9.97,4.08-14.49,9.2c-4.51,5.13-6.63,11.16-7.32,15.53c-0.36,2.2-0.45,4.01-0.45,5.26c0,1.25,0.04,1.94-0.01,1.95
						c-0.02,0-0.04-0.17-0.08-0.5c-0.03-0.33-0.1-0.81-0.11-1.44c-0.06-1.26-0.03-3.09,0.3-5.32c0.61-4.43,2.7-10.59,7.29-15.81
						c4.6-5.21,10.45-8.05,14.77-9.21c2.17-0.6,3.99-0.86,5.24-0.96c0.63-0.07,1.12-0.06,1.45-0.07
						C328.85,296.1,329.02,296.11,329.02,296.13z"/>
				</g>
			</g>
		</g>
		<g>
			<g>
				<g>
					<path class="st4" d="M299.15,338.27c-0.14,0-0.22-1.34-0.19-2.98c0.03-1.65,0.18-2.98,0.31-2.97c0.14,0,0.22,1.34,0.19,2.99
						C299.43,336.94,299.29,338.27,299.15,338.27z"/>
				</g>
			</g>
		</g>
	</g>
</g>
<g id="Background_Simple" class="st5">
	<g class="st6">
		<path class="st0" d="M391.46,100.81l-1.99-3.28c-16.78-27.65-47.12-44.32-79.11-42.3c-4.11,0.26-8.21,0.82-12.25,1.68
			c-29.08,6.23-54.39,28.22-64.88,56.39c-6.17,16.57-7.89,35.64-19.6,48.79c-15.24,17.11-41.1,17.65-63.84,16.94
			s-48.63-0.1-63.79,17.08c-9.5,10.76-12.51,26.06-11.75,40.47c2.03,38.15,28.61,72.26,62.42,89.22
			c33.81,16.96,73.61,18.47,110.61,11.02c51.83-10.45,101.12-39.14,130.75-83.46C407.67,209.02,415.17,148.64,391.46,100.81z"/>
	</g>
</g>
<g id="Floor">
	<g>
		<g>
			<path class="st4" d="M156.26,463.59c123.81,0,247.62,0,371.43,0"/>
		</g>
		<g>
			<g>
				<path class="st7" d="M527.69,463.59c0,0.13-83.16,0.24-185.71,0.24c-102.59,0-185.73-0.11-185.73-0.24
					c0-0.13,83.14-0.24,185.73-0.24C444.54,463.36,527.69,463.46,527.69,463.59z"/>
			</g>
		</g>
	</g>
</g>
<g id="Texts">
</g>
<g id="Characters">
	<g>
		<g>
			<g>
				<g>
					<g>
						<g>
							<g>
								<g>
									<g>
										<g>
											<g>
												<g>
													<g>
														<g>
															<g>
																<g>
																	<g>
																		<g>
																			<path class="st8" d="M195.91,408.04l-17.97,24.41l30.26,22.52c1.97-3.02-9.36-20.48-9.36-20.48l12.16-15.17
																				L195.91,408.04z"/>
																		</g>
																	</g>
																</g>
															</g>
														</g>
													</g>
												</g>
											</g>
										</g>
									</g>
								</g>
							</g>
						</g>
					</g>
					<g>
						<g>
							<g>
								<g>
									<g>
										<g>
											<g>
												<g>
													<g>
														<g>
															<g>
																<g>
																	<g>
																		<g>
																			<g>
																				<path class="st4" d="M190.45,426.22c-0.7-0.28-1.6,0.08-1.9,0.77c-0.3,0.69,0.05,1.61,0.75,1.89
																					c0.7,0.29,1.79-0.11,2.01-0.83c0.22-0.72-0.25-1.77-1-1.88"/>
																			</g>
																		</g>
																	</g>
																</g>
															</g>
														</g>
													</g>
												</g>
											</g>
										</g>
									</g>
								</g>
							</g>
						</g>
					</g>
					<g>
						<g>
							<g>
								<g>
									<g>
										<g>
											<g>
												<g>
													<g>
														<g>
															<g>
																<g>
																	<g>
																		<g>
																			<path class="st7" d="M177.89,432.5l1.91-2.62l28.27,22.76c0,0,0.9,1.59,0.04,2.42L177.89,432.5z"/>
																		</g>
																	</g>
																</g>
															</g>
														</g>
													</g>
												</g>
											</g>
										</g>
									</g>
								</g>
							</g>
						</g>
					</g>
					<g>
						<g>
							<g>
								<g>
									<g>
										<g>
											<g>
												<g>
													<g>
														<g>
															<g>
																<g>
																	<g>
																		<g>
																			<g>
																				<path class="st7" d="M199.44,434.71c-0.11,0.14-0.9-0.34-1.98-0.4c-1.08-0.09-1.93,0.27-2.02,0.11
																					c-0.11-0.13,0.76-0.85,2.07-0.75C198.81,433.76,199.57,434.6,199.44,434.71z"/>
																			</g>
																		</g>
																	</g>
																</g>
															</g>
														</g>
													</g>
												</g>
											</g>
										</g>
									</g>
								</g>
							</g>
						</g>
					</g>
					<g>
						<g>
							<g>
								<g>
									<g>
										<g>
											<g>
												<g>
													<g>
														<g>
															<g>
																<g>
																	<g>
																		<g>
																			<g>
																				<path class="st7" d="M201.63,438.38c-0.07,0.17-0.9-0.06-1.87,0.2c-0.97,0.22-1.6,0.8-1.75,0.69
																					c-0.16-0.08,0.39-1.02,1.59-1.31C200.82,437.65,201.74,438.24,201.63,438.38z"/>
																			</g>
																		</g>
																	</g>
																</g>
															</g>
														</g>
													</g>
												</g>
											</g>
										</g>
									</g>
								</g>
							</g>
						</g>
					</g>
					<g>
						<g>
							<g>
								<g>
									<g>
										<g>
											<g>
												<g>
													<g>
														<g>
															<g>
																<g>
																	<g>
																		<g>
																			<g>
																				<path class="st7" d="M200.61,443.52c-0.16-0.07,0.19-0.96,1.17-1.49c0.98-0.53,1.91-0.33,1.88-0.16
																					c-0.01,0.18-0.78,0.28-1.58,0.73C201.27,443.03,200.77,443.62,200.61,443.52z"/>
																			</g>
																		</g>
																	</g>
																</g>
															</g>
														</g>
													</g>
												</g>
											</g>
										</g>
									</g>
								</g>
							</g>
						</g>
					</g>
					<g>
						<g>
							<g>
								<g>
									<g>
										<g>
											<g>
												<g>
													<g>
														<g>
															<g>
																<g>
																	<g>
																		<g>
																			<g>
																				<path class="st7" d="M201.82,430.94c-0.16,0.09-0.69-0.62-1.57-1.18c-0.87-0.58-1.72-0.79-1.71-0.97
																					c-0.01-0.17,1.04-0.25,2.06,0.43C201.64,429.9,201.98,430.88,201.82,430.94z"/>
																			</g>
																		</g>
																	</g>
																</g>
															</g>
														</g>
													</g>
												</g>
											</g>
										</g>
									</g>
								</g>
							</g>
						</g>
					</g>
				</g>
			</g>
			<g>
				<g>
					<path class="st7" d="M269.06,305.9c0.55,3.06,1.4,29.09,1.95,42.82s-0.82,20.49-2.39,23.56c-1.57,3.07-60.78,46.71-65.29,57.16
						l-14.96-12.09c0,0,21.96-39.5,31.38-46.67c9.42-7.17,27.42-13.77,27.42-13.77l-5.12-75.19l24.59-1.34L269.06,305.9z"/>
				</g>
			</g>
			<g>
				<g>
					<g>
						<g>
							<g>
								<g>
									<g>
										<g>
											<g>
												<g>
													<g>
														<g>
															<g>
																<g>
																	<g>
																		<g>
																			<g>
																				<path class="st8" d="M214.04,432.17l-0.26,30.32l37.72,0.52c-0.17-3.61-19.58-11.11-19.58-11.11l0.96-19.42
																					L214.04,432.17z"/>
																			</g>
																		</g>
																	</g>
																</g>
															</g>
														</g>
													</g>
												</g>
											</g>
										</g>
									</g>
								</g>
							</g>
						</g>
						<g>
							<g>
								<g>
									<g>
										<g>
											<g>
												<g>
													<g>
														<g>
															<g>
																<g>
																	<g>
																		<g>
																			<g>
																				<g>
																					<path class="st4" d="M220.27,450.1c-0.73,0.19-1.25,1-1.09,1.74c0.16,0.74,0.98,1.27,1.72,1.09
																						c0.74-0.18,1.38-1.13,1.14-1.85c-0.24-0.72-1.24-1.29-1.91-0.94"/>
																				</g>
																			</g>
																		</g>
																	</g>
																</g>
															</g>
														</g>
													</g>
												</g>
											</g>
										</g>
									</g>
								</g>
							</g>
						</g>
						<g>
							<g>
								<g>
									<g>
										<g>
											<g>
												<g>
													<g>
														<g>
															<g>
																<g>
																	<g>
																		<g>
																			<g>
																				<path class="st7" d="M213.77,462.55l0.01-3.25l36.25,1.88c0,0,1.66,0.76,1.45,1.94L213.77,462.55z"/>
																			</g>
																		</g>
																	</g>
																</g>
															</g>
														</g>
													</g>
												</g>
											</g>
										</g>
									</g>
								</g>
							</g>
						</g>
						<g>
							<g>
								<g>
									<g>
										<g>
											<g>
												<g>
													<g>
														<g>
															<g>
																<g>
																	<g>
																		<g>
																			<g>
																				<g>
																					<path class="st7" d="M232.52,451.71c-0.01,0.18-0.93,0.25-1.85,0.83c-0.93,0.56-1.41,1.35-1.58,1.27
																						c-0.17-0.04,0.12-1.14,1.24-1.82C231.45,451.31,232.56,451.55,232.52,451.71z"/>
																				</g>
																			</g>
																		</g>
																	</g>
																</g>
															</g>
														</g>
													</g>
												</g>
											</g>
										</g>
									</g>
								</g>
							</g>
						</g>
						<g>
							<g>
								<g>
									<g>
										<g>
											<g>
												<g>
													<g>
														<g>
															<g>
																<g>
																	<g>
																		<g>
																			<g>
																				<g>
																					<path class="st7" d="M236.45,453.4c0.04,0.18-0.76,0.48-1.4,1.25c-0.66,0.75-0.83,1.59-1.01,1.58
																						c-0.17,0.03-0.29-1.05,0.52-2C235.37,453.29,236.45,453.23,236.45,453.4z"/>
																				</g>
																			</g>
																		</g>
																	</g>
																</g>
															</g>
														</g>
													</g>
												</g>
											</g>
										</g>
									</g>
								</g>
							</g>
						</g>
						<g>
							<g>
								<g>
									<g>
										<g>
											<g>
												<g>
													<g>
														<g>
															<g>
																<g>
																	<g>
																		<g>
																			<g>
																				<g>
																					<path class="st7" d="M238.64,458.17c-0.17,0.04-0.41-0.89,0.08-1.89c0.48-1.01,1.35-1.39,1.43-1.24
																						c0.1,0.15-0.46,0.69-0.85,1.52C238.88,457.38,238.82,458.15,238.64,458.17z"/>
																				</g>
																			</g>
																		</g>
																	</g>
																</g>
															</g>
														</g>
													</g>
												</g>
											</g>
										</g>
									</g>
								</g>
							</g>
						</g>
						<g>
							<g>
								<g>
									<g>
										<g>
											<g>
												<g>
													<g>
														<g>
															<g>
																<g>
																	<g>
																		<g>
																			<g>
																				<g>
																					<path class="st7" d="M232.25,447.27c-0.08,0.17-0.92-0.1-1.96-0.04c-1.04,0.04-1.86,0.37-1.95,0.21
																						c-0.1-0.13,0.7-0.81,1.92-0.85C231.49,446.52,232.34,447.12,232.25,447.27z"/>
																				</g>
																			</g>
																		</g>
																	</g>
																</g>
															</g>
														</g>
													</g>
												</g>
											</g>
										</g>
									</g>
								</g>
							</g>
						</g>
					</g>
				</g>
				<g>
					<g>
						<path class="st7" d="M271.79,277.27c0,1.78,2.87,46.58-11.78,78.97c0,0-5.07,10.14-5.96,14.57
							c-0.89,4.44-19.88,77.9-19.88,77.9l-21.9-0.8c0,0-3.51-36.81,0.04-58.12c3.55-21.3,10.03-18.82,10.03-32.57
							s-3.27-42.29-3.27-42.29s-4.78-7.8-6.41-22.9c-1.32-12.27,4.45-25.42,4.45-25.42l5.72-10.11l48.31-2.53L271.79,277.27z"/>
					</g>
				</g>
				<g>
					<g>
						<g>
							<path class="st8" d="M271.79,277.27c0,0,0.01-0.52-0.01-1.52c-0.02-1.02-0.05-2.52-0.1-4.48c-0.1-3.95-0.24-9.77-0.43-17.29
								l0-0.12l-0.12,0.01c-11.87,0.6-28.36,1.44-48.31,2.46l-0.11,0.01l-0.05,0.09c-1.78,3.14-3.72,6.57-5.73,10.11l-0.01,0.01
								l0,0.01c-1.44,3.48-2.6,7.19-3.44,11.08c-0.86,3.89-1.34,7.99-1.21,12.19c0.27,4.2,0.95,8.43,1.97,12.69
								c1.06,4.25,2.41,8.53,4.63,12.57l-0.03-0.1c0.83,7.46,1.59,15.19,2.25,23.15c0.32,3.98,0.61,8.02,0.8,12.11
								c0.1,2.04,0.17,4.1,0.19,6.17c0.04,1.04-0.04,2.06-0.06,3.1c-0.11,1.03-0.16,2.07-0.38,3.08c-0.36,2.04-1.1,4.01-2.07,5.87
								c-0.97,1.87-2.06,3.72-2.97,5.67c-1.86,3.9-3.06,8.11-3.93,12.4c-1.74,8.6-2.1,17.54-2.19,26.54
								c-0.04,11.9,0.56,23.57,1.54,34.87l0.02,0.23l0.23,0.01c7.46,0.27,14.77,0.54,21.9,0.79l0.21,0.01l0.05-0.2
								c6.34-24.61,12.27-47.61,17.48-68.29c0.64-2.59,1.27-5.14,1.9-7.65c0.32-1.27,0.53-2.53,0.92-3.73
								c0.38-1.21,0.83-2.39,1.29-3.55c0.94-2.32,1.95-4.57,2.98-6.76c0.26-0.55,0.52-1.09,0.78-1.63c0.27-0.53,0.53-1.08,0.74-1.64
								c0.45-1.11,0.9-2.2,1.34-3.29c3.45-8.73,5.49-17.2,6.92-24.93c2.8-15.51,3.17-28.13,3.3-36.73
								C272.14,281.95,271.79,277.27,271.79,277.27s-0.01,0.29,0.01,0.87c0.02,0.59,0.04,1.44,0.07,2.55
								c0.06,2.25,0.1,5.58,0.04,9.88c-0.18,8.6-0.61,21.21-3.45,36.68c-1.45,7.71-3.5,16.16-6.96,24.85
								c-0.44,1.08-0.89,2.17-1.34,3.27c-0.21,0.56-0.46,1.09-0.74,1.63c-0.26,0.54-0.52,1.09-0.79,1.63
								c-1.04,2.19-2.06,4.45-3.01,6.78c-0.47,1.17-0.92,2.36-1.31,3.58c-0.4,1.23-0.62,2.51-0.94,3.75
								c-0.63,2.51-1.26,5.06-1.91,7.65c-5.31,20.66-11.22,43.66-17.55,68.27l0.26-0.19c-7.13-0.26-14.44-0.53-21.9-0.8l0.25,0.24
								c-0.97-11.27-1.57-22.94-1.53-34.81c0.1-8.98,0.45-17.9,2.18-26.44c0.86-4.26,2.06-8.43,3.89-12.28
								c0.9-1.93,1.98-3.76,2.96-5.66c0.99-1.89,1.75-3.92,2.12-6.02c0.23-1.04,0.28-2.1,0.39-3.14c0.02-1.05,0.1-2.1,0.06-3.14
								c-0.02-2.08-0.09-4.14-0.19-6.19c-0.2-4.1-0.49-8.14-0.81-12.12c-0.66-7.96-1.43-15.7-2.27-23.17l-0.01-0.05l-0.03-0.05
								c-2.16-3.93-3.53-8.22-4.59-12.42c-1.01-4.22-1.7-8.46-1.97-12.6c-0.13-4.15,0.33-8.22,1.18-12.08
								c0.83-3.87,1.98-7.57,3.4-11.01l-0.01,0.02c2-3.54,3.93-6.98,5.7-10.12l-0.16,0.1c19.95-1.08,36.44-1.97,48.3-2.61
								l-0.12-0.11c0.23,7.51,0.41,13.33,0.54,17.28c0.07,1.96,0.12,3.46,0.15,4.48C271.75,276.75,271.79,277.27,271.79,277.27z"/>
						</g>
					</g>
				</g>
			</g>
		</g>
		<g>
			<g>
				<path class="st8" d="M256.08,185.51c0,0-13.05-2.3-11.79,14.43c0.75,10.02,3.7,27.16,5.33,38.11c0.56,3.79,1.8,10.57,6.81,14.55
					l35.9,24.85l11.33-13.55l-32.06-30.54l-5.04-30.2L256.08,185.51z"/>
			</g>
			<g>
				<g>
					<g>
						<g>
							<path class="st7" d="M257.6,125.22c4.14,3.26,6.51,8.66,6.1,13.92c-0.2,2.55-0.9,5.47,0.76,7.42
								c1.64,1.93,4.88,1.87,6.45,3.86c1.86,2.34,0.3,5.82,0.97,8.73c0.62,2.73,3.51,4.75,6.29,4.39c-3.26,2.66-7.27,4.4-11.44,4.96
								c-1.07-1.37-2.13-2.74-3.2-4.11c1.21,1.44,0.89,3.73-0.28,5.2c-1.17,1.47-2.99,2.27-4.78,2.84
								c-8.57,2.72-18.39,1.12-25.65-4.17"/>
						</g>
						<g>
							<path class="st7" d="M209.58,147.79c0.64-1.96,1.71-3.77,2.14-5.79c0.93-4.33-1.18-9.2,0.92-13.1
								c1.5-2.77,4.68-4.13,7.69-5.06c3.01-0.93,6.24-1.71,8.49-3.92c1.65-1.62,2.58-3.85,4.23-5.48c2.34-2.32,5.79-3.1,9.08-3.31
								c3.38-0.21,6.87,0.12,9.9,1.61c3.04,1.49,5.56,4.29,6.1,7.63c0.26,1.63,0.06,3.33,0.58,4.9c0.56,1.72,1.92,3.06,2.75,4.67
								c1.76,3.4,0.81,7.98-2.17,10.4l-23.18,29.94c-4.87,1.84-16.67-0.39-20.43-3.98C211.92,162.7,207.96,152.74,209.58,147.79z"/>
						</g>
						<g>
							<path class="st9" d="M258.68,136.53c-0.96-6.8-6.13-14.83-12.88-13.59l-20.84,7.01c-2.05,0.38-0.58,3.72-0.38,5.8l4.53,47
								c-0.03,0.01-2.81,2.01-3.82,1.62c-0.26-0.1-0.49,0.19-0.34,0.42c2.5,3.63,14.32,19.52,26.49,14.67
								c2.72-1.08-0.28-9.65,0.03-12.83l-0.36-8.11c-0.27-4.14-0.4-5.84-0.39-5.8c0,0,8.62-2.12,9.55-13.64
								C260.74,153.34,259.75,144.08,258.68,136.53z"/>
						</g>
						<g>
							<g>
								<g>
									<g>
										<g>
											<g>
												<g>
													<g>
														<g>
															<g>
																<g>
																	<g>
																		<g>
																			<g>
																				<path class="st7" d="M257.23,146.99c0.09,0.77-0.49,1.48-1.29,1.58c-0.8,0.1-1.52-0.43-1.61-1.2
																					c-0.09-0.77,0.49-1.48,1.29-1.58C256.43,145.69,257.15,146.22,257.23,146.99z"/>
																			</g>
																		</g>
																	</g>
																</g>
															</g>
														</g>
													</g>
												</g>
											</g>
										</g>
									</g>
								</g>
							</g>
						</g>
						<g>
							<g>
								<g>
									<g>
										<g>
											<g>
												<g>
													<g>
														<g>
															<g>
																<g>
																	<g>
																		<g>
																			<g>
																				<path class="st7" d="M243.04,147.88c0.09,0.77-0.49,1.48-1.29,1.58c-0.8,0.1-1.52-0.43-1.61-1.2
																					c-0.09-0.77,0.49-1.48,1.29-1.58C242.23,146.57,242.95,147.11,243.04,147.88z"/>
																			</g>
																		</g>
																	</g>
																</g>
															</g>
														</g>
													</g>
												</g>
											</g>
										</g>
									</g>
								</g>
							</g>
						</g>
						<g>
							<g>
								<g>
									<g>
										<g>
											<g>
												<g>
													<g>
														<g>
															<g>
																<g>
																	<g>
																		<g>
																			<g>
																				<g>
																					<path class="st7" d="M257.76,142.18c-0.16,0.27-1.52-0.59-3.22-0.34c-1.7,0.22-2.79,1.41-3.01,1.2
																						c-0.11-0.09,0.02-0.56,0.5-1.09c0.46-0.53,1.31-1.11,2.37-1.26c1.06-0.14,2.02,0.18,2.61,0.57
																						C257.59,141.65,257.84,142.06,257.76,142.18z"/>
																				</g>
																			</g>
																		</g>
																	</g>
																</g>
															</g>
														</g>
													</g>
												</g>
											</g>
										</g>
									</g>
								</g>
							</g>
						</g>
						<g>
							<g>
								<g>
									<g>
										<g>
											<g>
												<g>
													<g>
														<g>
															<g>
																<g>
																	<g>
																		<g>
																			<g>
																				<g>
																					<path class="st7" d="M242.48,143.44c-0.2,0.25-1.54-0.72-3.37-0.65c-1.83,0.05-3.13,1.11-3.34,0.88
																						c-0.1-0.1,0.09-0.54,0.66-1.02c0.55-0.48,1.52-0.96,2.66-1c1.14-0.04,2.12,0.37,2.69,0.81
																						C242.37,142.91,242.58,143.33,242.48,143.44z"/>
																				</g>
																			</g>
																		</g>
																	</g>
																</g>
															</g>
														</g>
													</g>
												</g>
											</g>
										</g>
									</g>
								</g>
							</g>
						</g>
						<g>
							<g>
								<g>
									<g>
										<g>
											<g>
												<g>
													<g>
														<g>
															<g>
																<g>
																	<g>
																		<g>
																			<g>
																				<g>
																					<path class="st7" d="M248.22,154.21c-0.01-0.09,0.95-0.33,2.52-0.66c0.4-0.07,0.77-0.18,0.82-0.46
																						c0.07-0.3-0.13-0.72-0.36-1.17c-0.45-0.94-0.93-1.93-1.42-2.96c-1.98-4.22-3.45-7.71-3.28-7.79
																						c0.17-0.08,1.92,3.28,3.9,7.5c0.48,1.04,0.94,2.04,1.37,2.99c0.19,0.44,0.49,0.94,0.33,1.56
																						c-0.08,0.31-0.36,0.55-0.61,0.64c-0.25,0.1-0.48,0.12-0.67,0.15C249.22,154.21,248.23,154.3,248.22,154.21z"/>
																				</g>
																			</g>
																		</g>
																	</g>
																</g>
															</g>
														</g>
													</g>
												</g>
											</g>
										</g>
									</g>
								</g>
							</g>
						</g>
						<g>
							<g>
								<g>
									<g>
										<g>
											<g>
												<g>
													<g>
														<g>
															<g>
																<g>
																	<g>
																		<g>
																			<g>
																				<path class="st10" d="M250.73,172.72c0,0-7.62,1.08-15.56-2.9c0,0,4.45,7.7,15.76,5.76L250.73,172.72z"/>
																			</g>
																		</g>
																	</g>
																</g>
															</g>
														</g>
													</g>
												</g>
											</g>
										</g>
									</g>
								</g>
							</g>
						</g>
						<g>
							<path class="st10" d="M243.42,158.8c0.21-0.36,0.44-0.75,0.81-0.96c0.4-0.23,0.9-0.22,1.36-0.14
								c0.67,0.12,1.32,0.41,1.78,0.91c0.46,0.5,0.68,1.24,0.45,1.88l0,0c-0.18,0.66-1.16,1.02-1.83,1.13
								c-0.67,0.12-1.37-0.08-1.96-0.41c-0.5-0.28-0.98-0.73-1-1.3C243.01,159.51,243.22,159.14,243.42,158.8z"/>
						</g>
						<g>
							<g>
								<g>
									<g>
										<g>
											<g>
												<g>
													<g>
														<g>
															<g>
																<g>
																	<g>
																		<g>
																			<g>
																				<g>
																					<path class="st7" d="M243.74,156.58c0.25-0.03,0.39,1.67,1.94,2.77c1.55,1.1,3.35,0.77,3.39,1.01
																						c0.03,0.11-0.38,0.36-1.15,0.44c-0.75,0.08-1.87-0.07-2.82-0.75c-0.95-0.67-1.41-1.64-1.52-2.33
																						C243.47,157.02,243.63,156.58,243.74,156.58z"/>
																				</g>
																			</g>
																		</g>
																	</g>
																</g>
															</g>
														</g>
													</g>
												</g>
											</g>
										</g>
									</g>
								</g>
							</g>
						</g>
						<g>
							<g>
								<g>
									<g>
										<g>
											<g>
												<g>
													<g>
														<g>
															<g>
																<g>
																	<path class="st7" d="M242.34,137.29c-0.12,0.44-1.71,0.36-3.53,0.72c-1.83,0.33-3.28,0.98-3.55,0.62
																		c-0.12-0.17,0.11-0.6,0.67-1.06c0.56-0.46,1.48-0.92,2.58-1.13c1.1-0.21,2.12-0.11,2.82,0.11
																		C242.03,136.77,242.39,137.08,242.34,137.29z"/>
																</g>
															</g>
														</g>
													</g>
												</g>
											</g>
										</g>
									</g>
								</g>
							</g>
						</g>
						<g>
							<g>
								<g>
									<g>
										<g>
											<g>
												<g>
													<g>
														<g>
															<g>
																<g>
																	<path class="st7" d="M256.79,136.43c-0.29,0.38-1.55,0.11-3.04,0.2c-1.49,0.05-2.73,0.45-3.05,0.1
																		c-0.14-0.17,0.03-0.54,0.55-0.92c0.52-0.38,1.4-0.72,2.43-0.77c1.02-0.05,1.93,0.21,2.48,0.53
																		C256.71,135.89,256.91,136.24,256.79,136.43z"/>
																</g>
															</g>
														</g>
													</g>
												</g>
											</g>
										</g>
									</g>
								</g>
							</g>
						</g>
						<g>
							<path class="st7" d="M220.36,131.58c1.05-1.62,2.94-2.45,4.74-3.15c7.76-3,15.89-5.07,24.14-6.15c1.03,1.69,0.08,4-1.47,5.23
								c-1.55,1.23-3.54,1.72-5.4,2.41c-1.86,0.69-3.76,1.76-4.52,3.59c-0.81,1.94-0.13,4.25-0.84,6.23
								c-1.23,3.41-5.99,4.51-7.2,7.93c-0.91,2.58,0.58,5.34,0.96,8.05c0.42,3.08-0.72,6.33-2.97,8.47
								c-1.78,1.69-4.21,2.63-6.65,2.68c-0.56-9.79-1.13-19.57-1.69-29.36C219.33,135.49,219.25,133.3,220.36,131.58z"/>
						</g>
						<g>
							<path class="st7" d="M200.64,156.31c1.55-1.39,3.48-2.58,4.1-4.57c0.9-2.89-1.42-6.28,0.07-8.91
								c1.36-2.4,5.37-2.28,6.64-4.73c0.99-1.91-0.15-3.61,0.23-5.29c0.38-1.68,2.76-3.15,4.47-2.95l13.37,19.37
								c1.24,6.5,2.49,9.96,1.09,13.76c-0.77,2.09-1.76,4.12-2.06,6.32c-0.3,2.2,0.26,4.69,2.06,6c-7.99,0.63-15.48-3.56-22.4-7.6
								c-2.44-1.43-4.88-2.85-7.33-4.28c-0.76-0.45-1.56-0.92-2.01-1.68C197.8,159.98,199.1,157.69,200.64,156.31z"/>
						</g>
						<g>
							<path class="st8" d="M208.01,165.76c0,0,0.28,0.11,0.85,0.16c0.57,0.06,1.43,0.08,2.49-0.18c1.05-0.26,2.33-0.79,3.47-1.87
								c1.14-1.06,2.06-2.71,2.29-4.67c0.11-0.98,0.04-2.03-0.26-3.07c-0.31-1.04-0.89-2.01-1.48-2.97
								c-0.59-0.96-1.23-1.95-1.53-3.08c-0.29-1.11-0.3-2.43,0.43-3.39c0.73-0.97,2.08-1.21,3.33-1.72c0.63-0.25,1.28-0.64,1.7-1.26
								c0.42-0.62,0.56-1.38,0.55-2.1c-0.02-1.46-0.64-2.8-0.91-4.16c-0.14-0.68-0.19-1.39-0.01-2.04c0.17-0.65,0.58-1.23,1.15-1.62
								c1.15-0.82,2.63-0.96,4.04-1.08c1.43-0.1,2.92-0.42,4.12-1.21c1.22-0.75,2.19-1.83,2.82-3.06c0.62-1.24,0.84-2.57,1.04-3.83
								c0.19-1.26,0.37-2.49,0.78-3.59c0.42-1.1,1.09-2.06,1.88-2.83c1.61-1.53,3.65-2.35,5.53-2.5c1.89-0.16,3.61,0.34,4.95,1.03
								c1.35,0.69,2.36,1.56,3.08,2.34c1.44,1.6,1.84,2.76,1.9,2.73c0.01,0-0.02-0.07-0.08-0.21c-0.06-0.13-0.14-0.34-0.28-0.59
								c-0.26-0.51-0.7-1.23-1.42-2.05c-0.71-0.82-1.72-1.72-3.09-2.45c-1.36-0.73-3.12-1.27-5.1-1.13
								c-1.95,0.14-4.07,0.96-5.77,2.55c-0.83,0.81-1.55,1.81-1.99,2.97c-0.45,1.16-0.63,2.42-0.82,3.67
								c-0.2,1.25-0.43,2.54-1.01,3.7c-0.59,1.15-1.51,2.16-2.66,2.87c-1.14,0.74-2.5,1.03-3.92,1.14c-1.4,0.13-2.98,0.25-4.27,1.16
								c-0.64,0.44-1.14,1.12-1.33,1.88c-0.2,0.76-0.14,1.53,0.01,2.25c0.29,1.44,0.9,2.74,0.91,4.08c0.01,0.66-0.12,1.32-0.47,1.83
								c-0.35,0.52-0.9,0.86-1.5,1.11c-0.6,0.25-1.24,0.42-1.86,0.69c-0.62,0.25-1.23,0.62-1.64,1.18c-0.84,1.13-0.8,2.58-0.48,3.75
								c0.33,1.22,1.01,2.22,1.6,3.18c0.6,0.96,1.17,1.89,1.47,2.87c0.3,0.98,0.37,1.99,0.28,2.93c-0.19,1.89-1.06,3.48-2.14,4.52
								c-1.08,1.05-2.31,1.6-3.34,1.88C209.22,166.1,208,165.67,208.01,165.76z"/>
						</g>
						<g>
							<path class="st7" d="M197.35,151.98c0,0-0.16,0.2-0.26,0.65c-0.1,0.45-0.09,1.19,0.34,1.98c0.22,0.38,0.55,0.78,1.02,1.07
								c0.47,0.29,1.06,0.47,1.71,0.45c1.27,0.01,2.77-0.75,3.5-2.22c0.37-0.72,0.57-1.56,0.57-2.44c0-0.88-0.23-1.78-0.56-2.64
								c-0.63-1.73-1.79-3.41-1.81-5.44c-0.02-0.98,0.21-2.04,0.93-2.75c0.71-0.72,1.81-0.9,2.9-0.91c1.1-0.04,2.29,0.1,3.46-0.36
								c0.57-0.23,1.09-0.66,1.42-1.2c0.34-0.54,0.51-1.15,0.58-1.76c0.15-1.25-0.14-2.43-0.29-3.55c-0.18-1.13-0.11-2.24,0.18-3.29
								c0.59-2.1,2-3.87,3.72-4.88c1.73-1.04,3.74-1.16,5.54-1.27c1.82-0.1,3.57-0.21,5.06-0.8c1.49-0.55,2.68-1.39,3.58-2.25
								c0.91-0.86,1.53-1.76,1.96-2.52c0.85-1.55,0.95-2.54,0.95-2.54c-0.06-0.02-0.23,0.95-1.11,2.45
								c-0.45,0.74-1.07,1.6-1.98,2.42c-0.9,0.82-2.07,1.62-3.52,2.13c-1.44,0.55-3.14,0.64-4.97,0.72
								c-1.8,0.09-3.88,0.18-5.74,1.28c-1.83,1.06-3.31,2.91-3.94,5.13c-0.31,1.1-0.39,2.32-0.2,3.48c0.15,1.16,0.42,2.31,0.29,3.44
								c-0.11,1.13-0.7,2.2-1.72,2.59c-1.01,0.41-2.17,0.3-3.29,0.33c-1.11,0.01-2.37,0.19-3.21,1.05
								c-0.84,0.84-1.07,2.03-1.04,3.07c0.02,1.07,0.34,2.08,0.73,2.98c0.39,0.91,0.82,1.75,1.15,2.59c0.33,0.84,0.55,1.68,0.56,2.5
								c0.01,0.82-0.17,1.61-0.5,2.28c-0.66,1.37-2.02,2.1-3.21,2.11c-0.6,0.02-1.15-0.13-1.59-0.38c-0.44-0.26-0.76-0.62-0.98-0.98
								c-0.43-0.73-0.48-1.44-0.41-1.87C197.25,152.21,197.37,151.99,197.35,151.98z"/>
						</g>
						<g>
							<path class="st7" d="M281.58,156.76c-0.07-0.01,0.43,0.77-0.03,2.09c-0.23,0.62-0.75,1.38-1.66,1.68
								c-0.89,0.3-2.12,0.07-2.93-0.8c-0.41-0.43-0.65-1.02-0.69-1.67c-0.04-0.65,0.09-1.34,0.31-2.02
								c0.42-1.35,1.29-2.83,1.16-4.59c-0.1-1.71-0.96-3.46-2.43-4.62c-0.73-0.58-1.58-1.03-2.49-1.31c-0.92-0.3-1.9-0.36-2.85-0.41
								c-0.95-0.05-1.89-0.07-2.76-0.29c-0.87-0.21-1.65-0.65-2.15-1.34c-0.5-0.68-0.72-1.53-0.78-2.36
								c-0.06-0.84,0.04-1.66,0.21-2.46c0.33-1.6,0.81-3.15,0.72-4.68c-0.08-1.52-0.66-2.87-1.43-3.88c-0.77-1.04-1.77-1.67-2.6-2.2
								c-0.84-0.53-1.56-0.98-2.08-1.44c-1.07-0.9-1.25-1.72-1.31-1.68c-0.01,0,0,0.05,0.03,0.14c0.03,0.09,0.07,0.23,0.16,0.39
								c0.16,0.34,0.47,0.81,0.99,1.29c0.52,0.49,1.23,0.98,2.06,1.52c0.82,0.55,1.77,1.18,2.48,2.18c0.72,0.98,1.25,2.27,1.31,3.7
								c0.07,1.44-0.4,2.94-0.75,4.57c-0.17,0.81-0.29,1.69-0.23,2.58c0.06,0.89,0.29,1.82,0.85,2.6c0.57,0.79,1.47,1.29,2.41,1.52
								c0.94,0.23,1.9,0.25,2.85,0.3c0.95,0.05,1.87,0.11,2.73,0.39c0.86,0.26,1.66,0.68,2.34,1.22c1.37,1.08,2.19,2.7,2.29,4.29
								c0.14,1.61-0.66,3.03-1.1,4.45c-0.22,0.72-0.35,1.45-0.3,2.17c0.05,0.71,0.34,1.4,0.81,1.87c0.93,0.96,2.28,1.18,3.26,0.82
								c1-0.37,1.53-1.2,1.75-1.87c0.23-0.69,0.16-1.27,0.08-1.63C281.7,156.92,281.58,156.76,281.58,156.76z"/>
						</g>
					</g>
				</g>
				<g>
					<path class="st8" d="M272.01,235.09v-11.07c1.24-6.2,0.65-13.56-2.23-19.24c-1.68-3.31-5.54-8.58-6.94-10.55l-11.02-14.28
						c-6.06,4.41-15.54,1.22-23.68-1.74c0,0-8.04,4.45-11.78,8.63c-3.93,4.4,9.51,59.45,9.51,59.45
						c-6.09,12.18-13.94,22.97-15.14,34.1l63.6,2.45l-2.7-29.16L272.01,235.09z"/>
				</g>
			</g>
			<g>
				<g>
					<path class="st7" d="M271.14,253.98c-0.04,0-0.05-0.45-0.05-1.25c0.01-0.91,0.02-2.04,0.04-3.39
						c0.05-2.97,0.11-6.87,0.18-11.18c0.08-4.37,0.2-8.32,0.34-11.18c0.07-1.43,0.14-2.59,0.2-3.39c0.07-0.8,0.12-1.24,0.15-1.24
						c0.04,0,0.05,0.45,0.05,1.25c-0.01,0.91-0.02,2.04-0.04,3.39c-0.05,2.97-0.11,6.87-0.18,11.18c-0.08,4.37-0.2,8.32-0.34,11.18
						c-0.07,1.43-0.14,2.59-0.2,3.39C271.23,253.54,271.17,253.98,271.14,253.98z"/>
				</g>
			</g>
		</g>
		<g>
			<path class="st9" d="M300.19,264.04c0,0,6.19,0.34,10.04,2.74c3.84,2.41,10.01,6.14,12.55,10.77c1.17,2.13-2.16,2.58-3.81,1.34
				c-1.64-1.24-4.16-3.56-5.41-3.85c-1.25-0.29-1.25-0.29-1.25-0.29s2.51,5.59,3.81,7.55c1.3,1.96,2.42,5.32-1.46,5.48
				c0,0-2.62,3.4-5.26,0.88c0,0-2.06,3.08-5.38-1.19c0,0-1.93,2.45-2.74,1.51c-0.81-0.93-3.45-2.42-4.22-5.48
				c-0.77-3.06-4.01-10.49-4.01-10.49L300.19,264.04z"/>
		</g>
	</g>
	<g>
		<g>
			<path class="st9" d="M439,178.11c0.69,0.01,29.09-2.98,29.09-2.98s2.4-11.55,2.28-14.55c-0.13-3-2.15-22.85-2.15-22.85
				l10.63-5.03c0,0,14.21,47.92,11.1,51.91c-3.11,3.98-8.93,7.54-9.43,7.56c-0.5,0.02-27.51,11.99-46.3,5.77
				C415.42,191.72,439,178.11,439,178.11z"/>
		</g>
		<g>
			<g>
				<path class="st8" d="M414.12,203.98c4.18,4.15,11.38,7.59,23.39,4.6c23.77-5.93,41.57-10.96,48.66-14.8
					c7.08-3.85,4.32-20.78,4.92-21.55c1.8-2.32-0.17-7.3-2.73-8.08c-7.27-2.2-19.92-1.33-20.56-0.67c-3.73,3.92-0.33,8.68-0.33,8.68
					l-31.33,4.1c0,0-5.45-0.37-11.51,0.74"/>
			</g>
			<g>
				<g>
					<path class="st7" d="M424.63,177c0,0,0.25-0.07,0.75-0.16c0.5-0.1,1.24-0.22,2.22-0.34c1.95-0.24,4.84-0.51,8.55-0.36l-0.02,0
						c7.48-1,18.29-2.45,31.32-4.2l-0.15,0.35c-0.97-1.48-1.58-3.27-1.44-5.15c0.07-0.93,0.4-1.86,0.9-2.66
						c0.23-0.42,0.56-0.77,0.86-1.14c0.1-0.08,0.28-0.18,0.41-0.22l0.36-0.09c0.24-0.06,0.47-0.08,0.71-0.13
						c3.76-0.48,7.66-0.5,11.68-0.25c2.01,0.14,4.05,0.38,6.08,0.84c0.51,0.12,1.01,0.26,1.52,0.39c0.53,0.17,1.03,0.46,1.43,0.84
						c0.82,0.74,1.37,1.71,1.77,2.72c0.38,1.02,0.56,2.14,0.41,3.26c-0.11,0.55-0.27,1.12-0.63,1.59c-0.09,0.1-0.08,0.37-0.09,0.63
						l0.01,0.8c0.08,2.15,0.17,4.34,0.12,6.55c-0.09,3.14-0.37,6.31-1.49,9.22c-0.56,1.44-1.38,2.84-2.6,3.83
						c-0.6,0.52-1.31,0.84-1.97,1.18c-0.67,0.35-1.36,0.63-2.04,0.94c-2.73,1.17-5.49,2.13-8.19,3.02c-2.71,0.9-5.38,1.71-7.99,2.47
						c-10.45,3.04-19.96,5.43-27.94,7.42c-1.99,0.51-3.92,0.93-5.76,1.2c-1.85,0.22-3.6,0.37-5.25,0.28
						c-3.29-0.09-6.08-0.85-8.19-1.78c-2.11-0.94-3.57-2.02-4.5-2.8c-0.93-0.78-1.34-1.27-1.34-1.27c0.03-0.03,0.46,0.44,1.41,1.19
						c0.94,0.75,2.41,1.79,4.51,2.7c2.1,0.89,4.86,1.61,8.11,1.67c1.63,0.07,3.36-0.09,5.19-0.32c1.83-0.28,3.72-0.7,5.72-1.23
						c7.97-2.03,17.46-4.46,27.89-7.52c2.61-0.77,5.27-1.59,7.97-2.49c2.7-0.9,5.44-1.86,8.15-3.02c0.67-0.31,1.36-0.58,2.01-0.93
						c0.67-0.34,1.34-0.64,1.88-1.12c1.13-0.91,1.91-2.23,2.45-3.62c1.08-2.81,1.36-5.94,1.45-9.05c0.06-2.19-0.04-4.36-0.12-6.52
						l-0.01-0.82c0-0.14,0.01-0.28,0.02-0.43c0.02-0.08,0.01-0.14,0.04-0.25c0.02-0.06,0.05-0.12,0.08-0.17l0.05-0.08
						c0.3-0.39,0.44-0.88,0.54-1.37c0.13-1-0.03-2.04-0.39-3c-0.37-0.95-0.89-1.85-1.63-2.52c-0.36-0.34-0.78-0.58-1.24-0.73
						c-0.5-0.13-0.99-0.27-1.48-0.39c-1.99-0.45-4.01-0.69-6-0.84c-3.98-0.26-7.89-0.25-11.58,0.22c-0.22,0.04-0.46,0.06-0.67,0.12
						l-0.32,0.08c-0.09,0.04-0.13,0.04-0.21,0.09c-0.28,0.35-0.6,0.67-0.81,1.06c-0.47,0.75-0.77,1.59-0.84,2.46
						c-0.14,1.73,0.45,3.46,1.34,4.85l0.2,0.3l-0.35,0.04c-13.04,1.67-23.86,3.05-31.35,4.01l-0.01,0l-0.01,0
						c-3.67-0.19-6.57,0.04-8.52,0.24c-0.98,0.1-1.72,0.2-2.22,0.28C424.89,176.98,424.63,177,424.63,177z"/>
				</g>
			</g>
		</g>
	</g>
	<g>
		<g>
			<path class="st11" d="M584.71,56.97l1.09,1.97c3.22,5.78,1.14,13.07-4.64,16.28L339.8,209.57l-12.74-22.89L568.43,52.33
				C574.2,49.11,581.49,51.19,584.71,56.97z"/>
		</g>
		<g>
			<path class="st11" d="M530.11,25.48l29.56,53.1l-17.47,9.73l-29.56-53.1c-0.6-1.08-0.21-2.44,0.87-3.04l13.56-7.55
				C528.14,24.02,529.51,24.41,530.11,25.48z"/>
		</g>
		<g>
			<path class="st11" d="M501.52,53.86l21.54,38.69c0.87,1.57,0.31,3.54-1.26,4.41l-11.8,6.57c-1.57,0.87-3.54,0.31-4.41-1.26
				l-21.54-38.69c-0.87-1.57-0.31-3.54,1.26-4.41l11.8-6.57C498.67,51.74,500.65,52.3,501.52,53.86z"/>
		</g>
		<g>
			
				<rect x="509.6" y="50.22" transform="matrix(-0.4864 -0.8738 0.8738 -0.4864 720.3692 554.9727)" class="st11" width="27.42" height="31.06"/>
		</g>
		<g>
			<g>
				<path class="st7" d="M564.88,54.3c0.07,0.13-47.3,26.63-105.78,59.18c-58.51,32.57-105.98,58.86-106.05,58.73
					c-0.07-0.13,47.29-26.62,105.79-59.19C517.33,80.47,564.81,54.18,564.88,54.3z"/>
			</g>
		</g>
		<g>
			<path class="st11" d="M242.05,253.85c17.79,31.96,55.32,45.01,83.83,29.15c28.51-15.87,37.19-54.64,19.4-86.61
				s-55.32-45.01-83.83-29.15C232.94,183.11,224.26,221.89,242.05,253.85z M329.84,204.99c12.47,22.4,6.38,49.57-13.59,60.69
				c-19.98,11.12-46.28,1.97-58.74-20.42c-12.47-22.4-6.38-49.57,13.59-60.69C291.07,173.45,317.37,182.59,329.84,204.99z"/>
		</g>
		<g>
			<path class="st11" d="M380.12,156.8l13.17,23.66c1.75,3.15,0.62,7.11-2.52,8.86l-1.07,0.6c-3.14,1.75-7.11,0.62-8.86-2.52
				l-13.17-23.66c-1.75-3.15-0.62-7.11,2.52-8.86l1.07-0.6C374.4,152.53,378.37,153.66,380.12,156.8z"/>
		</g>
		<g>
			<path class="st11" d="M405.42,142.72l13.17,23.66c1.75,3.15,0.62,7.11-2.52,8.86l-1.07,0.6c-3.15,1.75-7.11,0.62-8.86-2.52
				l-13.17-23.66c-1.75-3.15-0.62-7.11,2.52-8.86l1.07-0.6C399.7,138.45,403.67,139.58,405.42,142.72z"/>
		</g>
		<g>
			<g>
				<path class="st7" d="M379.85,156.4c0.13-0.07,3.18,5.3,6.83,11.99c3.65,6.69,6.5,12.17,6.37,12.24
					c-0.13,0.07-3.18-5.3-6.83-11.99C382.57,161.94,379.72,156.46,379.85,156.4z"/>
			</g>
		</g>
		<g>
			<g>
				<path class="st7" d="M368.24,164.7c0.13-0.07,3.11,5.05,6.67,11.44c3.56,6.39,6.34,11.62,6.21,11.69
					c-0.13,0.07-3.11-5.05-6.67-11.44C370.89,170,368.11,164.77,368.24,164.7z"/>
			</g>
		</g>
		<g>
			<g>
				<path class="st7" d="M405.3,142.51c0.13-0.07,3.23,5.28,6.94,11.94c3.71,6.66,6.61,12.12,6.49,12.19
					c-0.13,0.07-3.23-5.27-6.94-11.94C408.08,148.04,405.17,142.58,405.3,142.51z"/>
			</g>
		</g>
		<g>
			<g>
				<path class="st7" d="M393.08,149.88c0.13-0.07,3.17,5.24,6.8,11.86c3.63,6.62,6.47,12.04,6.34,12.11
					c-0.13,0.07-3.17-5.24-6.8-11.86C395.8,155.38,392.96,149.95,393.08,149.88z"/>
			</g>
		</g>
	</g>
	<g>
		<g>
			<g>
				<g>
					<g>
						<g>
							<g>
								<g>
									<g>
										<g>
											<g>
												<g>
													<g>
														<path class="st7" d="M465.62,113.81c2.3,0.27,4.66-1.42,5.16-3.68c0.5-2.26-0.94-4.78-3.14-5.51
															c1.43-1.46,1.8-3.87,0.86-5.69c-0.94-1.82-3.11-2.92-5.13-2.61c-0.08-2.02-1.28-3.96-3.06-4.93
															c-1.78-0.97-4.06-0.93-5.8,0.09c-2.23-1.92-5.83-2-8.15-0.18c-1.96-0.37-4.11,0.68-5.03,2.45
															c-0.93,1.77-0.56,4.13,0.87,5.53"/>
													</g>
												</g>
											</g>
										</g>
									</g>
								</g>
							</g>
						</g>
						<g>
							<g>
								<g>
									<g>
										<g>
											<g>
												<g>
													<path class="st9" d="M445.33,95.98l1.04,0c10.45,0.03,19.13,8.08,19.93,18.5c0.75,9.69,1.46,20.41,1.38,25.6
														c-0.17,10.76-10.93,12.4-10.93,12.4l0.87,12.93l-26.12-0.89l-2.17-46.9C428.4,106.45,434.13,96.6,445.33,95.98z"/>
												</g>
											</g>
										</g>
									</g>
								</g>
								<g>
									<g>
										<g>
											<g>
												<g>
													<g>
														<g>
															<g>
																<g>
																	<g>
																		<g>
																			<path class="st10" d="M456.84,152.47c0,0-6.87,0.39-14.09-4.17c0,0,3.46,8.15,14.2,7.21L456.84,152.47z"/>
																		</g>
																	</g>
																</g>
															</g>
														</g>
													</g>
												</g>
											</g>
										</g>
									</g>
								</g>
								<g>
									<g>
										<g>
											<g>
												<g>
													<g>
														<g>
															<g>
																<g>
																	<g>
																		<g>
																			<g>
																				<g>
																					<g>
																						<path class="st7" d="M460.4,124.59c0.03,0.81-0.64,1.5-1.49,1.55c-0.85,0.04-1.55-0.58-1.58-1.39
																							c-0.03-0.81,0.64-1.5,1.48-1.55C459.66,123.15,460.37,123.78,460.4,124.59z"/>
																					</g>
																				</g>
																			</g>
																		</g>
																	</g>
																</g>
															</g>
														</g>
													</g>
												</g>
											</g>
										</g>
									</g>
								</g>
								<g>
									<g>
										<g>
											<g>
												<g>
													<g>
														<g>
															<g>
																<g>
																	<g>
																		<g>
																			<g>
																				<g>
																					<g>
																						<g>
																							<path class="st7" d="M463.97,119.74c-0.19,0.2-1.35-0.67-3.01-0.67c-1.65-0.02-2.87,0.82-3.05,0.62
																								c-0.09-0.09,0.11-0.45,0.64-0.83c0.52-0.38,1.41-0.75,2.44-0.74c1.03,0.01,1.9,0.39,2.39,0.78
																								C463.9,119.29,464.07,119.65,463.97,119.74z"/>
																						</g>
																					</g>
																				</g>
																			</g>
																		</g>
																	</g>
																</g>
															</g>
														</g>
													</g>
												</g>
											</g>
										</g>
									</g>
								</g>
								<g>
									<g>
										<g>
											<g>
												<g>
													<g>
														<g>
															<g>
																<g>
																	<g>
																		<g>
																			<g>
																				<g>
																					<g>
																						<path class="st7" d="M445.47,123.88c0.03,0.81-0.64,1.5-1.49,1.55c-0.85,0.04-1.55-0.58-1.58-1.39
																							c-0.03-0.81,0.64-1.5,1.49-1.55C444.74,122.44,445.45,123.06,445.47,123.88z"/>
																					</g>
																				</g>
																			</g>
																		</g>
																	</g>
																</g>
															</g>
														</g>
													</g>
												</g>
											</g>
										</g>
									</g>
								</g>
								<g>
									<g>
										<g>
											<g>
												<g>
													<g>
														<g>
															<g>
																<g>
																	<g>
																		<g>
																			<g>
																				<g>
																					<g>
																						<g>
																							<path class="st7" d="M447.72,120c-0.19,0.2-1.35-0.67-3.01-0.67c-1.65-0.02-2.87,0.82-3.05,0.62
																								c-0.09-0.09,0.11-0.45,0.64-0.83c0.52-0.38,1.41-0.75,2.44-0.74c1.03,0.01,1.9,0.39,2.39,0.78
																								C447.64,119.54,447.81,119.91,447.72,120z"/>
																						</g>
																					</g>
																				</g>
																			</g>
																		</g>
																	</g>
																</g>
															</g>
														</g>
													</g>
												</g>
											</g>
										</g>
									</g>
								</g>
								<g>
									<g>
										<g>
											<g>
												<g>
													<g>
														<g>
															<g>
																<g>
																	<g>
																		<g>
																			<g>
																				<g>
																					<g>
																						<path class="st7" d="M453.68,132.28c-0.01-0.09,1.02-0.27,2.69-0.48c0.42-0.04,0.82-0.12,0.89-0.41
																							c0.1-0.3-0.07-0.76-0.28-1.25c-0.39-1.02-0.81-2.1-1.24-3.22c-1.72-4.58-2.96-8.35-2.78-8.42
																							c0.19-0.07,1.73,3.59,3.45,8.18c0.41,1.13,0.81,2.21,1.19,3.24c0.16,0.48,0.43,1.03,0.21,1.66
																							c-0.11,0.32-0.43,0.54-0.7,0.62c-0.27,0.08-0.51,0.09-0.72,0.1C454.73,132.37,453.69,132.37,453.68,132.28z"
																							/>
																					</g>
																				</g>
																			</g>
																		</g>
																	</g>
																</g>
															</g>
														</g>
													</g>
												</g>
											</g>
										</g>
									</g>
								</g>
								<g>
									<g>
										<g>
											<g>
												<g>
													<g>
														<g>
															<g>
																<g>
																	<g>
																		<path class="st7" d="M449.17,113.64c-0.22,0.42-1.64-0.04-3.38-0.1c-1.74-0.1-3.21,0.22-3.37-0.21
																			c-0.07-0.21,0.24-0.58,0.87-0.92c0.62-0.33,1.57-0.59,2.62-0.54c1.05,0.05,1.95,0.39,2.52,0.78
																			C449.01,113.04,449.27,113.44,449.17,113.64z"/>
																	</g>
																</g>
															</g>
														</g>
													</g>
												</g>
											</g>
										</g>
									</g>
								</g>
								<g>
									<g>
										<g>
											<g>
												<g>
													<g>
														<g>
															<g>
																<g>
																	<g>
																		<path class="st7" d="M464.07,112.92c-0.35,0.37-1.71-0.02-3.35-0.04c-1.64-0.07-3.03,0.24-3.35-0.15
																			c-0.14-0.19,0.08-0.57,0.69-0.92c0.6-0.35,1.6-0.64,2.73-0.61c1.13,0.03,2.1,0.38,2.67,0.76
																			C464.04,112.35,464.23,112.74,464.07,112.92z"/>
																	</g>
																</g>
															</g>
														</g>
													</g>
												</g>
											</g>
										</g>
									</g>
								</g>
								<g>
									<g>
										<g>
											<g>
												<g>
													<g>
														<g>
															<g>
																<g>
																	<path class="st7" d="M465.28,109.54c0,0-2.82-6.75-6.06-8.33c-3.93-1.92-5.64,2.4-9.38,1.34
																		c-3.75-1.06-7.5-2.9-11.34-0.01c-4.2,3.16-2.25,5.39-2.52,10.17c-1.11,19.36-4.66,24.82-5.64,15.7
																		c-0.11-1-2.88-1.8-3.28-6.02c-0.52-5.48-0.71-12.12,0.53-16c1.04-3.27,2.91-5.53,6.27-8.01
																		c5.3-3.92,12.55-3.98,17.48-3.47C456.27,95.4,465.76,101.1,465.28,109.54z"/>
																</g>
															</g>
														</g>
													</g>
												</g>
											</g>
										</g>
									</g>
								</g>
								<g>
									<g>
										<g>
											<g>
												<g>
													<g>
														<g>
															<g>
																<g>
																	<path class="st9" d="M431.03,128.11c-0.06-1.66-1.49-2.98-3.15-2.82c-2.01,0.18-4.24,1.32-4.12,5.47
																		c0.21,7.36,7.56,5.63,7.56,5.42C431.33,136.02,431.15,131.19,431.03,128.11z"/>
																</g>
															</g>
														</g>
													</g>
												</g>
											</g>
										</g>
									</g>
								</g>
								<g>
									<g>
										<g>
											<g>
												<g>
													<g>
														<g>
															<g>
																<g>
																	<path class="st10" d="M429.64,133.44c-0.03-0.02-0.13,0.09-0.34,0.2c-0.21,0.1-0.57,0.18-0.96,0.05
																		c-0.79-0.26-1.48-1.48-1.55-2.8c-0.04-0.67,0.08-1.31,0.31-1.85c0.21-0.54,0.55-0.93,0.94-1.01
																		c0.39-0.1,0.67,0.12,0.77,0.33c0.1,0.2,0.06,0.35,0.1,0.36c0.02,0.02,0.15-0.13,0.09-0.43
																		c-0.03-0.15-0.13-0.32-0.3-0.45c-0.18-0.14-0.44-0.2-0.71-0.17c-0.57,0.06-1.06,0.59-1.31,1.18
																		c-0.28,0.59-0.43,1.31-0.39,2.06c0.09,1.48,0.89,2.85,1.96,3.12c0.52,0.12,0.95-0.05,1.17-0.23
																		C429.63,133.62,429.67,133.46,429.64,133.44z"/>
																</g>
															</g>
														</g>
													</g>
												</g>
											</g>
										</g>
									</g>
								</g>
							</g>
							<g>
								<g>
									<g>
										<g>
											<g>
												<g>
													<g>
														<g>
															<path class="st7" d="M431.22,113.86c0.95,0.65,1.96,1.33,3.11,1.45c1.15,0.12,2.47-0.54,2.67-1.68
																c0.09-0.51-0.03-1.11,0.3-1.5c0.4-0.47,1.14-0.32,1.76-0.25c2.14,0.23,4.65-2.12,5.2-4.2
																c0.54,0.82,1.74,1.07,2.56,0.54c0.83-0.53,1.13-0.83,1.78-1.57c0.65-0.74,1.56-1.4,2.53-1.26
																c0.54,0.08,1.05,0.4,1.6,0.36c0.97-0.08,1.44-1.21,1.59-2.17c0.15-0.96,0.27-2.08,1.09-2.6
																c0.76-0.48,1.74-0.2,2.63-0.06c0.89,0.13,2.04-0.07,2.27-0.94c0.12-0.46-0.07-0.94-0.33-1.34
																c-1.14-1.81-3.64-2.62-5.62-1.82c-0.71-2.43-2.98-4.33-5.5-4.61c-2.52-0.27-5.14,1.09-6.36,3.32
																c-1.55-1.42-3.81-2.01-5.86-1.55c-2.05,0.46-3.83,1.97-4.63,3.91c-1.79-0.48-3.83,0.21-4.97,1.67
																c-1.14,1.46-1.31,3.61-0.41,5.23c-1.32,0.75-2.46,2.06-2.49,3.59c-0.03,1.52,1.45,3.04,2.92,2.65
																c-0.6,1.18-0.12,2.79,1.03,3.46c1.15,0.67,2.78,0.28,3.52-0.82"/>
														</g>
													</g>
												</g>
											</g>
										</g>
									</g>
								</g>
							</g>
							<g>
								<g>
									<g>
										<g>
											<g>
												<g>
													<g>
														<g>
															<g>
																<path class="st8" d="M454.9,98.98c0.01,0,0.01,0.05,0,0.13c-0.01,0.09-0.02,0.22-0.05,0.39
																	c-0.07,0.34-0.21,0.84-0.54,1.42c-0.33,0.57-0.85,1.22-1.64,1.73c-0.77,0.52-1.83,0.92-3.02,0.85l0.13-0.16
																	c0.23,0.63,0.16,1.38-0.15,2.03c-0.3,0.66-0.77,1.24-1.26,1.81c-0.25,0.27-0.48,0.59-0.83,0.84
																	c-0.34,0.24-0.75,0.38-1.17,0.43c-0.83,0.1-1.77-0.16-2.37-0.86l0.28-0.08c-0.19,1.46-1.03,2.92-2.35,3.81
																	c-0.7,0.5-1.57,0.81-2.42,0.78c-0.85-0.01-1.64-0.26-2.38-0.53l0.2-0.09c-0.4,0.91-1.01,1.69-1.75,2.27
																	c-0.73,0.57-1.69,0.91-2.57,0.69c-1.74-0.37-2.88-1.82-3.11-3.18l0.17,0.08c-0.86,0.47-1.79,0.51-2.53,0.36
																	c-0.75-0.14-1.34-0.47-1.76-0.79c-0.42-0.33-0.67-0.67-0.82-0.9c-0.14-0.24-0.19-0.38-0.19-0.38
																	c0.04-0.03,0.24,0.56,1.08,1.18c0.42,0.3,0.99,0.6,1.72,0.72c0.71,0.12,1.59,0.06,2.39-0.38l0.14-0.08l0.03,0.16
																	c0.23,1.27,1.33,2.62,2.94,2.95c0.79,0.19,1.64-0.11,2.33-0.65c0.69-0.54,1.27-1.29,1.64-2.15l0.06-0.14l0.14,0.05
																	c0.73,0.26,1.49,0.5,2.28,0.5c0.79,0.02,1.56-0.25,2.23-0.73c1.25-0.84,2.04-2.21,2.22-3.59l0.05-0.35l0.23,0.27
																	c0.51,0.6,1.34,0.85,2.09,0.76c0.37-0.04,0.74-0.17,1.03-0.37c0.29-0.2,0.52-0.51,0.78-0.79
																	c0.5-0.56,0.95-1.12,1.24-1.73c0.3-0.6,0.36-1.27,0.17-1.84l-0.06-0.18l0.18,0.01c1.12,0.08,2.14-0.28,2.89-0.77
																	c0.77-0.48,1.28-1.1,1.63-1.64C454.87,99.74,454.85,98.96,454.9,98.98z"/>
															</g>
														</g>
													</g>
												</g>
											</g>
										</g>
									</g>
								</g>
							</g>
						</g>
					</g>
				</g>
				<g>
					<g>
						<g>
							<g>
								<g>
									<g>
										<g>
											<g>
												<g>
													<g>
														<g>
															<g>
																<g>
																	<g>
																		<g>
																			<g>
																				<path class="st7" d="M453.65,137.78c-0.05-0.27-1.85,0.17-3.5-1.05c-1.66-1.22-1.93-3.18-2.19-3.13
																					c-0.12,0-0.24,0.51-0.06,1.33c0.17,0.8,0.71,1.89,1.72,2.64c1.01,0.74,2.16,0.89,2.91,0.76
																					C453.3,138.21,453.69,137.9,453.65,137.78z"/>
																			</g>
																		</g>
																	</g>
																</g>
															</g>
														</g>
													</g>
												</g>
											</g>
										</g>
									</g>
								</g>
							</g>
						</g>
					</g>
				</g>
			</g>
			<g>
				<g>
					<g>
						<g>
							<g>
								<g>
									<g>
										<g>
											<g>
												<g>
													<g>
														<g>
															<g>
																<g>
																	<g>
																		<g>
																			<g>
																				<g>
																					<g>
																						<g>
																							<g>
																								<path class="st8" d="M509.11,417.56l7.1,24.19c0,0,26.98,0.9,28.73,5.25l-46.42,15.46l-12.62-37.24
																									L509.11,417.56z"/>
																							</g>
																						</g>
																					</g>
																				</g>
																			</g>
																		</g>
																	</g>
																</g>
															</g>
														</g>
													</g>
												</g>
											</g>
										</g>
									</g>
								</g>
							</g>
						</g>
						<g>
							<g>
								<g>
									<g>
										<g>
											<g>
												<g>
													<g>
														<g>
															<g>
																<g>
																	<g>
																		<g>
																			<g>
																				<g>
																					<g>
																						<g>
																							<g>
																								<g>
																									<path class="st1" d="M501.2,444.52c-0.82,0.54-1.1,1.76-0.59,2.6c0.51,0.84,1.75,1.14,2.57,0.61
																										c0.83-0.53,1.21-1.98,0.61-2.76c-0.6-0.78-2.07-1.05-2.75-0.34"/>
																								</g>
																							</g>
																						</g>
																					</g>
																				</g>
																			</g>
																		</g>
																	</g>
																</g>
															</g>
														</g>
													</g>
												</g>
											</g>
										</g>
									</g>
								</g>
							</g>
						</g>
						<g>
							<g>
								<g>
									<g>
										<g>
											<g>
												<g>
													<g>
														<g>
															<g>
																<g>
																	<g>
																		<g>
																			<g>
																				<g>
																					<g>
																						<g>
																							<g>
																								<path class="st7" d="M542.33,445.26c0,0,2.37,0.21,2.62,1.74l-46.42,15.46l-1.12-3.8L542.33,445.26"/>
																							</g>
																						</g>
																					</g>
																				</g>
																			</g>
																		</g>
																	</g>
																</g>
															</g>
														</g>
													</g>
												</g>
											</g>
										</g>
									</g>
								</g>
							</g>
						</g>
						<g>
							<g>
								<g>
									<g>
										<g>
											<g>
												<g>
													<g>
														<g>
															<g>
																<g>
																	<g>
																		<g>
																			<g>
																				<g>
																					<g>
																						<g>
																							<g>
																								<g>
																									<path class="st4" d="M516.89,441.27c0.07,0.23-1.03,0.71-1.9,1.81c-0.9,1.08-1.15,2.25-1.39,2.23
																										c-0.22,0.03-0.34-1.44,0.74-2.76C515.41,441.23,516.87,441.04,516.89,441.27z"/>
																								</g>
																							</g>
																						</g>
																					</g>
																				</g>
																			</g>
																		</g>
																	</g>
																</g>
															</g>
														</g>
													</g>
												</g>
											</g>
										</g>
									</g>
								</g>
							</g>
						</g>
						<g>
							<g>
								<g>
									<g>
										<g>
											<g>
												<g>
													<g>
														<g>
															<g>
																<g>
																	<g>
																		<g>
																			<g>
																				<g>
																					<g>
																						<g>
																							<g>
																								<g>
																									<path class="st4" d="M522.43,441.66c0.13,0.2-0.73,0.91-1.18,2.13c-0.49,1.2-0.33,2.3-0.56,2.37
																										c-0.2,0.11-0.8-1.17-0.21-2.67C521.05,441.98,522.35,441.44,522.43,441.66z"/>
																								</g>
																							</g>
																						</g>
																					</g>
																				</g>
																			</g>
																		</g>
																	</g>
																</g>
															</g>
														</g>
													</g>
												</g>
											</g>
										</g>
									</g>
								</g>
							</g>
						</g>
						<g>
							<g>
								<g>
									<g>
										<g>
											<g>
												<g>
													<g>
														<g>
															<g>
																<g>
																	<g>
																		<g>
																			<g>
																				<g>
																					<g>
																						<g>
																							<g>
																								<g>
																									<path class="st4" d="M527.14,446.56c-0.19,0.12-0.88-0.91-0.71-2.35c0.16-1.44,1.06-2.28,1.22-2.13
																										c0.19,0.14-0.28,1.04-0.4,2.22C527.1,445.49,527.35,446.47,527.14,446.56z"/>
																								</g>
																							</g>
																						</g>
																					</g>
																				</g>
																			</g>
																		</g>
																	</g>
																</g>
															</g>
														</g>
													</g>
												</g>
											</g>
										</g>
									</g>
								</g>
							</g>
						</g>
						<g>
							<g>
								<g>
									<g>
										<g>
											<g>
												<g>
													<g>
														<g>
															<g>
																<g>
																	<g>
																		<g>
																			<g>
																				<g>
																					<g>
																						<g>
																							<g>
																								<g>
																									<path class="st4" d="M514.66,435.93c-0.03,0.24-1.17,0.27-2.42,0.79c-1.26,0.49-2.12,1.25-2.3,1.09
																										c-0.19-0.12,0.51-1.28,1.99-1.87C513.41,435.35,514.71,435.72,514.66,435.93z"/>
																								</g>
																							</g>
																						</g>
																					</g>
																				</g>
																			</g>
																		</g>
																	</g>
																</g>
															</g>
														</g>
													</g>
												</g>
											</g>
										</g>
									</g>
								</g>
							</g>
						</g>
					</g>
				</g>
				<g>
					<g>
						<g>
							<g>
								<g>
									<g>
										<g>
											<g>
												<g>
													<g>
														<g>
															<g>
																<g>
																	<g>
																		<g>
																			<g>
																				<g>
																					<g>
																						<g>
																							<g>
																								<path class="st8" d="M400.78,417.77l-10.11,23.1c0,0,20.09,18.03,18.63,22.48l-45.5-17.99l14.27-36.64
																									L400.78,417.77z"/>
																							</g>
																						</g>
																					</g>
																				</g>
																			</g>
																		</g>
																	</g>
																</g>
															</g>
														</g>
													</g>
												</g>
											</g>
										</g>
									</g>
								</g>
							</g>
						</g>
						<g>
							<g>
								<g>
									<g>
										<g>
											<g>
												<g>
													<g>
														<g>
															<g>
																<g>
																	<g>
																		<g>
																			<g>
																				<g>
																					<g>
																						<g>
																							<g>
																								<g>
																									<path class="st1" d="M377.38,433.34c-0.98-0.11-1.98,0.64-2.12,1.61c-0.15,0.97,0.61,1.99,1.58,2.12
																										c0.97,0.12,2.2-0.74,2.24-1.72c0.04-0.98-0.91-2.13-1.89-2.02"/>
																								</g>
																							</g>
																						</g>
																					</g>
																				</g>
																			</g>
																		</g>
																	</g>
																</g>
															</g>
														</g>
													</g>
												</g>
											</g>
										</g>
									</g>
								</g>
							</g>
						</g>
						<g>
							<g>
								<g>
									<g>
										<g>
											<g>
												<g>
													<g>
														<g>
															<g>
																<g>
																	<g>
																		<g>
																			<g>
																				<g>
																					<g>
																						<g>
																							<g>
																								<path class="st7" d="M408.42,460.34c0,0,1.68,1.68,0.88,3.02l-45.5-17.99l1.58-3.64L408.42,460.34"/>
																							</g>
																						</g>
																					</g>
																				</g>
																			</g>
																		</g>
																	</g>
																</g>
															</g>
														</g>
													</g>
												</g>
											</g>
										</g>
									</g>
								</g>
							</g>
						</g>
						<g>
							<g>
								<g>
									<g>
										<g>
											<g>
												<g>
													<g>
														<g>
															<g>
																<g>
																	<g>
																		<g>
																			<g>
																				<g>
																					<g>
																						<g>
																							<g>
																								<g>
																									<path class="st4" d="M391.5,440.93c-0.1,0.22-1.25-0.12-2.62,0.16c-1.38,0.25-2.33,0.99-2.5,0.82
																										c-0.19-0.12,0.67-1.32,2.34-1.63C390.39,439.95,391.63,440.75,391.5,440.93z"/>
																								</g>
																							</g>
																						</g>
																					</g>
																				</g>
																			</g>
																		</g>
																	</g>
																</g>
															</g>
														</g>
													</g>
												</g>
											</g>
										</g>
									</g>
								</g>
							</g>
						</g>
						<g>
							<g>
								<g>
									<g>
										<g>
											<g>
												<g>
													<g>
														<g>
															<g>
																<g>
																	<g>
																		<g>
																			<g>
																				<g>
																					<g>
																						<g>
																							<g>
																								<g>
																									<path class="st4" d="M395.49,444.79c-0.03,0.24-1.15,0.23-2.27,0.87c-1.14,0.61-1.74,1.55-1.95,1.45
																										c-0.22-0.05,0.14-1.41,1.55-2.18C394.23,444.16,395.57,444.58,395.49,444.79z"/>
																								</g>
																							</g>
																						</g>
																					</g>
																				</g>
																			</g>
																		</g>
																	</g>
																</g>
															</g>
														</g>
													</g>
												</g>
											</g>
										</g>
									</g>
								</g>
							</g>
						</g>
						<g>
							<g>
								<g>
									<g>
										<g>
											<g>
												<g>
													<g>
														<g>
															<g>
																<g>
																	<g>
																		<g>
																			<g>
																				<g>
																					<g>
																						<g>
																							<g>
																								<g>
																									<path class="st4" d="M395.94,451.58c-0.22-0.03-0.09-1.26,0.96-2.26c1.04-1,2.28-1.06,2.3-0.84
																										c0.05,0.23-0.88,0.62-1.73,1.45C396.61,450.73,396.17,451.64,395.94,451.58z"/>
																								</g>
																							</g>
																						</g>
																					</g>
																				</g>
																			</g>
																		</g>
																	</g>
																</g>
															</g>
														</g>
													</g>
												</g>
											</g>
										</g>
									</g>
								</g>
							</g>
						</g>
						<g>
							<g>
								<g>
									<g>
										<g>
											<g>
												<g>
													<g>
														<g>
															<g>
																<g>
																	<g>
																		<g>
																			<g>
																				<g>
																					<g>
																						<g>
																							<g>
																								<g>
																									<path class="st4" d="M393.22,435.41c-0.17,0.17-1.07-0.54-2.36-0.95c-1.28-0.44-2.42-0.4-2.47-0.64
																										c-0.07-0.21,1.21-0.66,2.73-0.15C392.63,434.16,393.4,435.28,393.22,435.41z"/>
																								</g>
																							</g>
																						</g>
																					</g>
																				</g>
																			</g>
																		</g>
																	</g>
																</g>
															</g>
														</g>
													</g>
												</g>
											</g>
										</g>
									</g>
								</g>
							</g>
						</g>
					</g>
				</g>
				<g>
					<path class="st7" d="M417.81,290.87l-15.94,64.66c0,0-28.75,48.4-33.62,72.62l26.3,10.34c0,0,19.13-46.65,24.74-55.21
						c3.09-4.71,6.35-8.35,8.66-10.67c2.09-2.1,3.61-4.7,4.36-7.56l12.07-46.13L417.81,290.87z"/>
				</g>
				<g>
					<g>
						<path class="st7" d="M411.02,280.54c0,0,2.22,17.31,18.88,24.99l35.12,57.2c0,0,2.76,18.6,8.06,34.27
							c5.26,15.56,15.86,45.86,15.86,45.86l28.89-10.8l-18.41-62.94l-3.01-21.83l-28.66-72.95l-24.62-14.76L411.02,280.54z"/>
					</g>
					<g>
						<g>
							<path class="st8" d="M411.02,280.54c0,0,0.17-0.13,0.53-0.36c0.37-0.24,0.9-0.6,1.59-1.06c1.42-0.94,3.52-2.32,6.24-4.12
								c5.49-3.6,13.5-8.87,23.66-15.54l0.08-0.05l0.08,0.05c7.18,4.29,15.45,9.24,24.64,14.73l0.05,0.03l0.02,0.06
								c8.02,20.37,17.81,45.23,28.72,72.93l0.01,0.03l0,0.03c0.95,6.9,1.98,14.28,3.02,21.83l-0.01-0.04
								c4.98,17.01,10.3,35.19,15.78,53.94c0.88,3.02,1.76,6.02,2.63,9.01l0.07,0.23l-0.23,0.08c-9.84,3.68-19.49,7.28-28.89,10.79
								l-0.25,0.09l-0.09-0.25c-5.01-14.51-9.83-28.48-14.41-41.73c-1.15-3.31-2.28-6.59-3.22-9.87c-0.95-3.28-1.79-6.54-2.55-9.75
								c-1.52-6.44-2.74-12.73-3.7-18.83l0.03,0.08c-14.37-23.46-26.33-42.99-35.05-57.24l0.06,0.05
								c-4.77-2.23-8.42-5.31-11.03-8.39c-2.63-3.08-4.28-6.13-5.39-8.65c-1.11-2.54-1.68-4.58-2.01-5.96
								c-0.17-0.69-0.26-1.22-0.32-1.57C411.03,280.72,411.02,280.54,411.02,280.54s0.04,0.18,0.11,0.53
								c0.07,0.35,0.17,0.88,0.36,1.56c0.35,1.37,0.94,3.4,2.07,5.92c1.13,2.51,2.79,5.53,5.42,8.58c2.62,3.04,6.25,6.08,10.99,8.28
								l0.04,0.02l0.02,0.03c8.76,14.23,20.77,33.73,35.19,57.15l0.02,0.04l0.01,0.05c0.96,6.08,2.2,12.36,3.72,18.79
								c0.77,3.21,1.61,6.46,2.56,9.73c0.94,3.27,2.07,6.53,3.22,9.85c4.59,13.25,9.42,27.22,14.44,41.72l-0.33-0.16
								c9.4-3.51,19.05-7.12,28.89-10.8l-0.16,0.32c-0.87-2.98-1.75-5.99-2.63-9.01c-5.48-18.75-10.8-36.93-15.77-53.94l-0.01-0.02
								l0-0.02c-1.04-7.54-2.06-14.93-3-21.83l0.01,0.06c-10.87-27.72-20.62-52.59-28.61-72.97l0.08,0.09
								c-9.17-5.52-17.43-10.49-24.6-14.8l0.15,0c-10.17,6.6-18.2,11.81-23.69,15.38c-2.75,1.78-4.86,3.14-6.3,4.07
								c-0.71,0.46-1.25,0.8-1.63,1.04C411.22,280.42,411.02,280.54,411.02,280.54z"/>
						</g>
					</g>
				</g>
				<g>
					<path class="st8" d="M426.44,156.96c0,0-8.42,6.48-12.51,13.72c-4.9,8.66-5.43,21.52-5.58,41.48
						c-0.14,18.47,2.62,23.59,1.55,30.55c-2.08,13.59-3.64,59.21-3.64,59.21s26.97-10.37,32.24-14.95c5.27-4.58,5.27-4.58,5.27-4.58
						l33.79,11.17l-6.82-41.52l-4.68-51.75l-5.99-27.45l-1.05-10.77l-28.95-11.71L426.44,156.96z"/>
				</g>
				<g>
					<g>
						<path class="st7" d="M458.02,161.47c0.35,0.06-0.83,2.43-2.92,5.91l-0.08,0.14l-0.16-0.06c-2.94-1.14-6.81-2.57-11.05-4.11
							c-4.78-1.74-9.1-3.36-12.19-4.62c-1.55-0.63-2.79-1.16-3.64-1.55c-0.85-0.39-1.31-0.62-1.3-0.65c0.01-0.03,0.5,0.13,1.38,0.46
							c0.96,0.36,2.21,0.83,3.7,1.39c3.22,1.18,7.5,2.74,12.24,4.48c4.24,1.55,8.11,3.02,11.02,4.23l-0.24,0.08
							C456.93,163.75,458.22,161.5,458.02,161.47z"/>
					</g>
				</g>
			</g>
		</g>
		<g>
			<g>
				<path class="st9" d="M492.93,139.88c0,0-2.14-3.33-4.16-6.4c-2.03-3.07-5.08-4.57-5.56-6.18c-0.49-1.61-3.18-8.72-3.61-10.49
					c-0.6-2.48-0.52-5.22-0.52-5.22s2.21-0.95,3.27,2.22c0.64,1.9,2.67,8.35,3.11,8.67c0.44,0.32,1.05-0.15,1.05-0.15
					s-2.26-6.2-2.36-7.38c-0.1-1.17,0.31-8.92,0.31-8.92s1.61-0.49,2.66,1.49c1.05,1.97,1.09,7.01,1.09,7.01l1.59,5.58l-0.55-5.52
					l0.8-10.14c0,0,2.52,0.23,3.2,2.97c0.67,2.74-0.22,6.56,0.24,7.38c0.45,0.82,0.94,5.71,0.94,5.71s0.55-11.91,1.82-12.25
					c1.27-0.34,2.32,0.93,2.14,3.33s-0.23,7.47,0.43,9.72c0.66,2.24,7.43,10.96,6.87,14.83c-0.56,3.88-0.62,6.98-0.62,6.98h-11.64
					L492.93,139.88z"/>
			</g>
			<g>
				<path class="st9" d="M452.25,169.86c0.65,0.25,28.36,7.1,28.36,7.1s6.19-10.04,7.09-12.9c0.9-2.86,5.76-22.22,5.76-22.22
					l11.71-1.11c0,0-2.96,49.9-7.24,52.58c-4.28,2.69-10.96,4.05-11.44,3.9c-0.48-0.15-29.94,1.9-45.5-10.35
					C425.44,174.63,452.25,169.86,452.25,169.86z"/>
			</g>
			<g>
				<g class="st12">
					<path d="M432.38,196.26c0,0,3.98,5.04,11.33,6.66c7.35,1.62,23,4.48,23,4.48l-0.76-7.68l-34.05-3.64"/>
				</g>
				<g>
					<g>
						<path class="st8" d="M420.05,185.71c2.52,5.32,8.12,11.02,20.43,12.29c24.37,2.52,42.82,3.86,50.79,2.66
							c7.97-1.2,11.14-18.07,11.96-18.59c2.48-1.57,2.32-6.92,0.18-8.52c-6.08-4.54-18.28-8.04-19.1-7.63
							c-4.84,2.41-3.27,8.05-3.27,8.05l-30.86-6.81c0,0-5-2.2-11.07-3.23"/>
					</g>
					<g>
						<g>
							<path class="st7" d="M439.12,163.92c0,0,0.26,0.02,0.76,0.1c0.5,0.08,1.24,0.22,2.2,0.43c1.92,0.44,4.73,1.17,8.16,2.57
								l-0.02-0.01c7.38,1.61,18.03,3.92,30.88,6.72l-0.26,0.28c-0.4-1.72-0.38-3.61,0.4-5.33c0.38-0.86,1-1.61,1.75-2.2
								c0.36-0.32,0.79-0.53,1.2-0.78c0.12-0.05,0.33-0.07,0.46-0.07l0.37,0.04c0.25,0.02,0.47,0.08,0.71,0.12
								c3.69,0.83,7.38,2.14,11.07,3.75c1.84,0.82,3.67,1.74,5.43,2.86c0.44,0.28,0.86,0.59,1.29,0.89
								c0.44,0.34,0.82,0.78,1.06,1.27c0.51,0.98,0.71,2.07,0.73,3.16c0.01,1.09-0.2,2.2-0.72,3.2c-0.29,0.48-0.64,0.96-1.13,1.28
								c-0.12,0.06-0.2,0.32-0.3,0.56l-0.26,0.75c-0.66,2.05-1.31,4.14-2.12,6.19c-1.16,2.92-2.49,5.8-4.54,8.16
								c-1.02,1.16-2.26,2.2-3.75,2.71c-0.74,0.28-1.52,0.35-2.26,0.43c-0.75,0.11-1.49,0.12-2.23,0.19
								c-2.97,0.17-5.88,0.13-8.73,0.05c-2.85-0.08-5.64-0.22-8.35-0.39c-10.86-0.7-20.61-1.69-28.8-2.54
								c-2.04-0.19-4-0.46-5.82-0.84c-1.81-0.43-3.51-0.88-5.03-1.52c-3.06-1.21-5.42-2.87-7.09-4.46
								c-1.67-1.61-2.67-3.12-3.28-4.17c-0.61-1.05-0.83-1.65-0.83-1.65c0.03-0.02,0.28,0.57,0.92,1.6c0.63,1.02,1.66,2.5,3.33,4.07
								c1.67,1.55,4.02,3.17,7.06,4.34c1.5,0.62,3.19,1.06,4.99,1.47c1.81,0.36,3.74,0.61,5.79,0.79c8.19,0.8,17.94,1.76,28.79,2.43
								c2.71,0.16,5.49,0.3,8.34,0.38c2.84,0.07,5.75,0.11,8.69-0.07c0.73-0.07,1.47-0.09,2.21-0.19c0.74-0.09,1.48-0.15,2.15-0.41
								c1.37-0.47,2.55-1.44,3.53-2.57c1.97-2.28,3.3-5.12,4.45-8.01c0.8-2.04,1.44-4.11,2.11-6.17l0.27-0.77
								c0.05-0.13,0.1-0.26,0.16-0.39c0.04-0.07,0.06-0.13,0.13-0.22c0.04-0.05,0.09-0.1,0.13-0.14l0.07-0.06
								c0.41-0.27,0.71-0.68,0.97-1.1c0.47-0.89,0.67-1.93,0.66-2.95c-0.02-1.02-0.21-2.05-0.67-2.92c-0.23-0.44-0.54-0.81-0.92-1.1
								c-0.42-0.29-0.84-0.59-1.26-0.87c-1.72-1.1-3.53-2.02-5.36-2.83c-3.65-1.6-7.34-2.92-10.96-3.74
								c-0.22-0.04-0.46-0.1-0.67-0.12l-0.33-0.04c-0.1,0.01-0.13,0-0.23,0.02c-0.38,0.23-0.79,0.43-1.12,0.72
								c-0.69,0.54-1.27,1.23-1.62,2.02c-0.72,1.58-0.76,3.41-0.39,5.02l0.08,0.35l-0.34-0.08c-12.83-2.87-23.47-5.26-30.84-6.91
								l-0.01,0l-0.01-0.01c-3.39-1.43-6.19-2.2-8.09-2.68c-0.95-0.24-1.69-0.39-2.19-0.5
								C439.37,163.99,439.12,163.92,439.12,163.92z"/>
						</g>
					</g>
				</g>
				<g>
					<g>
						<path class="st7" d="M491.27,183.61c-0.03,0.06-0.81-0.22-1.99-0.87c-1.18-0.65-2.73-1.71-4.21-3.14
							c-1.48-1.44-2.59-2.95-3.28-4.1c-0.69-1.15-1-1.93-0.94-1.96c0.15-0.09,1.67,2.88,4.59,5.69
							C488.31,182.07,491.35,183.46,491.27,183.61z"/>
					</g>
				</g>
			</g>
		</g>
	</g>
	<g>
		<g>
			<g>
				<path class="st9" d="M273.71,265.97c0,0,6.19,0.34,10.04,2.74c3.84,2.41,10.01,6.14,12.55,10.77c1.17,2.13-2.16,2.58-3.81,1.34
					c-1.64-1.24-4.16-3.56-5.41-3.85c-1.25-0.29-1.25-0.29-1.25-0.29s2.51,5.59,3.81,7.55c1.3,1.96,2.42,5.32-1.46,5.48
					c0,0-2.62,3.4-5.26,0.88c0,0-2.06,3.08-5.38-1.19c0,0-1.93,2.45-2.74,1.51c-0.81-0.93-3.45-2.42-4.22-5.48
					c-0.77-3.06-4.01-10.49-4.01-10.49L273.71,265.97z"/>
			</g>
			<g>
				<path class="st8" d="M220.95,184.42c0,0-4.84,1.31-7.79,5.85c-2.38,3.66-3.11,10.05-2.43,14.72c1.44,9.94,6.01,26.74,8.57,37.52
					c0.88,3.72,2.7,10.38,8.03,13.91l37.88,22.72l10.13-15.04l-34.54-28.15l-6.83-38.58L220.95,184.42z"/>
			</g>
		</g>
		<g>
			<g>
				<path class="st7" d="M214.4,222.36c0.01,0,0.05,0.13,0.12,0.39c0.08,0.29,0.18,0.67,0.31,1.17c0.27,1.06,0.66,2.58,1.16,4.53
					c0.99,3.97,2.42,9.67,4.19,16.75c0.9,3.5,2.98,7.1,6.24,9.88c1.6,1.43,3.57,2.47,5.54,3.68c1.97,1.19,4.01,2.42,6.09,3.67
					c8.35,5.04,17.56,10.61,27.29,16.48l-0.35,0.08c1.16-1.72,2.4-3.56,3.64-5.41c2.2-3.27,4.37-6.49,6.49-9.62l0.05,0.34
					c-13.01-10.71-24.81-20.42-34.24-28.19l-0.05-0.04l-0.02-0.06c-2.26-9.52-3.9-17.3-4.93-22.72c-0.52-2.71-0.88-4.82-1.11-6.26
					c-0.1-0.7-0.18-1.25-0.24-1.64c-0.05-0.37-0.06-0.56-0.06-0.56s0.05,0.19,0.12,0.55c0.07,0.39,0.17,0.93,0.3,1.63
					c0.27,1.43,0.66,3.54,1.21,6.24c1.1,5.4,2.8,13.17,5.1,22.67l-0.07-0.11c9.45,7.74,21.28,17.42,34.31,28.1l0.18,0.15l-0.13,0.2
					c-2.11,3.13-4.28,6.35-6.48,9.63c-1.25,1.85-2.49,3.69-3.65,5.41l-0.14,0.21l-0.21-0.13c-9.72-5.89-18.93-11.47-27.27-16.53
					c-2.08-1.26-4.11-2.5-6.08-3.69c-1.95-1.21-3.95-2.28-5.58-3.75c-3.31-2.85-5.41-6.54-6.31-10.11
					c-1.7-7.09-3.08-12.82-4.03-16.79c-0.46-1.96-0.82-3.49-1.07-4.55c-0.11-0.5-0.2-0.9-0.26-1.18
					C214.42,222.5,214.39,222.36,214.4,222.36z"/>
			</g>
		</g>
		<g>
			<g>
				<path class="st7" d="M215.02,189.77c-0.01-0.03,0.26-0.16,0.77-0.32c0.51-0.17,1.26-0.36,2.22-0.5c1.88-0.26,4.68-0.3,7.39,1
					c2.66,1.36,4.48,3.43,5.52,5.03c0.52,0.81,0.85,1.53,1.01,2.04c0.17,0.51,0.2,0.81,0.18,0.82c-0.09,0.03-0.39-1.13-1.49-2.65
					c-1.08-1.51-2.91-3.48-5.45-4.77c-2.57-1.23-5.27-1.26-7.12-1.1C216.17,189.49,215.05,189.86,215.02,189.77z"/>
			</g>
		</g>
	</g>
</g>
</svg>
