<?xml version="1.0" encoding="utf-8"?>
<!-- Generator: Adobe Illustrator 23.0.3, SVG Export Plug-In . SVG Version: 6.00 Build 0)  -->
<svg version="1.1" id="Layer_1" xmlns="http://www.w3.org/2000/svg" xmlns:xlink="http://www.w3.org/1999/xlink" x="0px" y="0px"
	 viewBox="0 0 560 560" style="enable-background:new 0 0 560 560;" xml:space="preserve">
<style type="text/css">
	.st0{fill:#50B3CF;}
	.st1{font-family:'Poppins-Bold';}
	.st2{font-size:79.8747px;}
</style>
<text transform="matrix(1 0 0 1 115.8052 286.7594)" class="st0 st1 st2">J       EDIA</text>
<g>
	<path class="st0" d="M259.56,305.37c0,3.39-0.12,6.78,0.02,10.16c0.37,8.43,0.1,16.86,0.34,25.29c0.22,7.41,0.25,14.82,0.26,22.23
		c0,2.44-1.06,3.69-3.3,4.08c-2.28,0.39-4.45-0.91-4.81-2.91c-0.08-0.46-0.13-0.92-0.14-1.38c-0.04-6.45,0.05-12.9-0.15-19.34
		c-0.25-8.29-0.03-16.59-0.31-24.88c-0.28-8.06-0.09-16.13-0.32-24.19c-0.03-0.96,0.24-1.29,1.37-1.24c1.91,0.07,3.82,0.07,5.73,0
		c0.95-0.03,1.26,0.16,1.24,1.05c-0.06,3.71-0.03,7.42-0.03,11.13C259.5,305.37,259.53,305.37,259.56,305.37z M256.13,363.73
		c1.05-0.02,2.04-0.86,2.06-1.74c0.01-0.91-1.08-1.94-2.12-1.86c-1.16,0.1-1.93,0.69-2.01,1.77
		C253.99,362.9,255,363.75,256.13,363.73z"/>
	<path class="st0" d="M263.51,243.55c-3.39,0-6.79-0.01-10.18,0c-4.12,0.02-6.46,2.07-6.65,6.15c-0.17,3.7-0.11,7.42-0.06,11.13
		c0.02,1.11-0.15,1.61-1.43,1.53c-1.95-0.13-3.92-0.07-5.88-0.02c-0.77,0.02-1-0.22-0.98-0.98c0.05-1.8,0.04-3.61,0.01-5.41
		c-0.09-6.19-0.21-12.37-0.29-18.56c-0.02-1.52-0.14-3.06,0.58-4.5c1.12-2.25,3-3.54,5.4-3.59c4.43-0.1,8.89-0.42,13.3,0.47
		c3.23,0.66,5.91,2.43,8.74,3.91c2.23,1.17,4.48,2.29,6.69,3.5c2.09,1.14,3.06,3.48,2.63,5.79c-0.17,0.91-0.79,0.54-1.22,0.54
		C270.62,243.56,267.07,243.55,263.51,243.55z"/>
	<path class="st0" d="M249.33,289.13c-4.83,0-9.65,0.01-14.48-0.01c-2.88-0.01-4.38-1.5-4.42-4.38c-0.03-2.12-0.08-4.25,0.01-6.36
		c0.1-2.17-0.28-4.31-0.28-6.48c0.01-3.99,1.23-5.46,5.13-5.59c4.34-0.14,8.7-0.07,13.05-0.01c1.87,0.03,2.44,0.74,2.54,2.7
		c0.33,7.03,5.73,12.89,12.77,13.74c1.44,0.17,2.16,0.59,1.9,2.19c-0.16,0.98-0.11,2.02-0.01,3.02c0.11,1.04-0.32,1.2-1.25,1.19
		C259.3,289.1,254.31,289.13,249.33,289.13z M241.6,284.99c4.76,0.01,7.21-2.33,7.39-6.65c0.22-5.11-2.95-8.05-7.46-7.93
		c-4.12,0.11-6.96,2.04-7.05,7.35C234.4,282.56,237.61,285.42,241.6,284.99z"/>
	<path class="st0" d="M238.98,315.77c0-3.55,0.12-7.11-0.03-10.66c-0.16-3.54-0.11-7.08-0.23-10.61c-0.03-0.95,0.04-1.32,1.11-1.27
		c1.96,0.09,3.93,0.08,5.89,0c1.04-0.04,1.35,0.29,1.36,1.34c0.02,6.25,0.1,12.5,0.17,18.75c0.05,4.82,0.1,9.64,0.12,14.46
		c0.01,2.97-1.43,4.67-3.93,4.68c-2.55,0.02-4.34-1.94-4.35-4.78c-0.01-3.98,0-7.95,0-11.93
		C239.05,315.77,239.02,315.77,238.98,315.77z"/>
	<path class="st0" d="M259.15,276.66c-2.62-2.16-4.05-4.67-4.1-7.76c-0.04-2.66-1.22-4.49-3.44-5.71c-0.78-0.43-1.03-0.91-0.97-1.74
		c0.07-0.9-0.02-1.8,0.03-2.7c0.1-1.92,0.71-2.53,2.64-2.54c4.24-0.02,8.48-0.01,12.72,0c2.76,0,5.51,0.04,8.27-0.02
		c0.89-0.02,1.22,0.23,1.14,1.14c-0.08,0.89,0,1.8-0.02,2.7c-0.04,1.59-0.74,2.29-2.35,2.31c-2.49,0.02-4.98,0-7.47,0.01
		c-3.96,0.01-6.44,2.48-6.45,6.39C259.14,271.26,259.15,273.8,259.15,276.66z"/>
	<path class="st0" d="M244.81,277.89c0,2.49-0.51,2.98-3.09,2.98c-2.61,0-3.05-0.44-3.05-2.99c0-2.57,0.78-3.35,3.38-3.35
		C243.96,274.53,244.81,275.57,244.81,277.89z"/>
</g>
<g>
	<path class="st0" d="M181.09,279.47c0-0.91-0.01-1.82,0.01-2.73c0.01-0.29-0.08-0.5-0.3-0.68c-0.33-0.26-0.69-0.52-0.92-0.86
		c-0.71-1.04-1.65-1.26-2.85-1.09c-1.27,0.18-2.56,0.19-3.85,0.28c-1.04,0.08-1.78-0.35-2.29-1.26c-1.02-1.85-1.88-3.75-2.48-5.78
		c-0.36-1.22-0.12-2.18,0.87-3.03c1.19-1.02,2.31-2.14,3.48-3.2c0.28-0.25,0.36-0.5,0.34-0.86c-0.04-0.8-0.06-1.6-0.03-2.39
		c0.01-0.34-0.14-0.52-0.37-0.72c-1.25-1.1-2.48-2.22-3.74-3.31c-0.81-0.7-1.05-1.52-0.78-2.56c0.55-2.13,1.33-4.16,2.39-6.1
		c0.5-0.91,1.21-1.36,2.26-1.31c1.64,0.08,3.28,0.1,4.92,0.17c0.43,0.02,0.73-0.09,1.03-0.43c0.47-0.55,1-1.07,1.54-1.56
		c0.3-0.27,0.39-0.53,0.35-0.92c-0.13-1.61-0.22-3.23-0.36-4.84c-0.09-1.11,0.33-1.9,1.29-2.48c1.85-1.13,3.79-2.03,5.88-2.62
		c1.03-0.29,1.89-0.1,2.57,0.72c1.08,1.29,2.22,2.52,3.36,3.76c0.26,0.29,0.52,0.41,0.91,0.38c0.64-0.05,1.29-0.11,1.93-0.04
		c0.62,0.06,1.02-0.12,1.41-0.6c1-1.24,2.06-2.42,3.08-3.64c0.67-0.8,1.49-1.05,2.5-0.77c1.63,0.44,3.23,0.96,4.72,1.75
		c0.59,0.31,1.18,0.65,1.72,1.05c0.68,0.5,0.91,1.22,0.88,2.05c-0.07,1.66-0.11,3.33-0.18,4.99c-0.01,0.34,0.07,0.58,0.32,0.81
		c0.6,0.56,1.19,1.13,1.75,1.73c0.21,0.22,0.42,0.28,0.7,0.26c1.57-0.12,3.15-0.18,4.71-0.34c1.34-0.14,2.26,0.32,2.88,1.51
		c0.95,1.83,1.81,3.68,2.36,5.68c0.32,1.14,0.01,1.99-0.79,2.75c-1.18,1.11-2.36,2.22-3.56,3.31c-0.26,0.24-0.41,0.47-0.39,0.85
		c0.06,0.93-0.18,1.98,0.18,2.76c0.36,0.78,1.3,1.29,1.99,1.91c0.69,0.62,1.39,1.24,2.09,1.86c0.7,0.62,0.91,1.38,0.71,2.28
		c-0.48,2.25-1.34,4.34-2.44,6.35c-0.48,0.89-1.23,1.29-2.24,1.25c-1.64-0.07-3.28-0.09-4.92-0.19c-0.53-0.03-0.89,0.13-1.18,0.54
		c-0.17,0.23-0.32,0.51-0.56,0.66c-1.13,0.73-1.24,1.77-1.09,2.98c0.16,1.25,0.19,2.52,0.27,3.78c0.06,1.01-0.41,1.69-1.24,2.25
		c-1.79,1.23-3.77,1.97-5.81,2.61c-1.11,0.35-2.03,0.13-2.8-0.77c-1.06-1.24-2.18-2.43-3.26-3.66c-0.26-0.29-0.51-0.41-0.91-0.37
		c-0.68,0.06-1.38,0.11-2.06,0.06c-0.55-0.04-0.89,0.15-1.23,0.56c-1.01,1.23-2.06,2.42-3.08,3.64c-0.67,0.79-1.5,1.04-2.5,0.78
		c-2.04-0.53-4.02-1.25-5.85-2.29c-0.96-0.55-1.6-1.34-1.5-2.57c0.07-0.77,0.01-1.55,0.01-2.33
		C180.99,279.47,181.04,279.47,181.09,279.47z M206.39,258.87c0.11-5.56-4.73-10.81-10.58-10.83c-5.89-0.02-10.72,5.14-10.72,10.78
		c0,5.61,4.67,10.78,10.6,10.82C201.73,269.68,206.45,264.38,206.39,258.87z"/>
</g>
</svg>
